<svg width="360" height="3600" viewBox="0 0 360 3600" fill="none" xmlns="http://www.w3.org/2000/svg">
<g clip-path="url(#clip0_696_2328)">
<rect width="360" height="3600" fill="black"/>
<rect x="318.118" y="61" width="78.7825" height="77.118" transform="rotate(90 318.118 61)" fill="#FFDDDD"/>
<rect x="90.4531" y="314.852" width="192.518" height="236.902" fill="#FF0000"/>
<rect x="216.902" y="-18" width="192.518" height="236.902" transform="rotate(90 216.902 -18)" fill="#FF0000"/>
<rect x="338.383" y="878.453" width="192.518" height="236.902" transform="rotate(135 338.383 878.453)" fill="#FF0000"/>
<ellipse cx="216.863" cy="175.418" rx="19.4182" ry="18.8634" transform="rotate(90 216.863 175.418)" fill="#FF94C8"/>
<ellipse cx="239.919" cy="853.369" rx="19.4182" ry="18.8634" transform="rotate(135 239.919 853.369)" fill="#FF94C8"/>
<ellipse cx="182.829" cy="368.111" rx="6.38027" ry="6.10287" fill="#FF94C8"/>
<ellipse cx="318.38" cy="439.103" rx="6.38027" ry="6.10287" fill="#FF94C8"/>
<ellipse cx="165.103" cy="196.38" rx="6.38027" ry="6.10287" transform="rotate(90 165.103 196.38)" fill="#FF94C8"/>
<ellipse cx="161.827" cy="861.821" rx="6.38027" ry="6.10287" transform="rotate(135 161.827 861.821)" fill="#FF94C8"/>
<ellipse cx="282.827" cy="686.829" rx="6.38027" ry="6.10287" transform="rotate(135 282.827 686.829)" fill="#FF94C8"/>
<ellipse cx="193.369" cy="280.454" rx="6.38027" ry="6.10287" fill="#FF94C8"/>
<ellipse cx="289.939" cy="966.548" rx="6.38027" ry="6.10287" transform="rotate(135 289.939 966.548)" fill="#FF94C8"/>
<rect x="149.816" y="263.805" width="8.8769" height="71.57" fill="#FF94C8"/>
<rect x="291" y="56" width="8.8769" height="71.57" fill="#FF94C8"/>
<rect x="173.676" y="297.094" width="9.4317" height="27.7403" fill="#FF0000"/>
<rect x="292.098" y="940.852" width="9.4317" height="27.7403" transform="rotate(135 292.098 940.852)" fill="#FF0000"/>
<rect x="254.824" y="1033.05" width="78.7825" height="77.118" transform="rotate(135 254.824 1033.05)" fill="#FFDDDD"/>
<rect x="228.602" y="517.352" width="89.3238" height="53.2614" fill="#FF94C8"/>
<rect x="84.2617" y="158" width="89.3238" height="53.2614" transform="rotate(90 84.2617 158)" fill="#FF94C8"/>
<rect x="85.8232" y="834.664" width="89.3238" height="53.2614" transform="rotate(135 85.8232 834.664)" fill="#FF94C8"/>
<rect x="95.3906" y="33.4531" width="33.8432" height="34.398" transform="rotate(90 95.3906 33.4531)" fill="#FF94C8"/>
<rect x="195.195" y="735.266" width="33.8432" height="34.398" transform="rotate(135 195.195 735.266)" fill="#FF94C8"/>
<rect x="60.9922" y="33.4531" width="33.8432" height="34.398" transform="rotate(90 60.9922 33.4531)" fill="#FF94C8"/>
<rect x="170.871" y="710.938" width="33.8432" height="34.398" transform="rotate(135 170.871 710.938)" fill="#FF94C8"/>
<rect x="56.6094" y="517.352" width="33.8432" height="34.398" fill="#FF94C8"/>
<rect x="95.3906" y="-0.390625" width="33.8432" height="34.398" transform="rotate(90 95.3906 -0.390625)" fill="#FF94C8"/>
<rect x="219.125" y="711.336" width="33.8432" height="34.398" transform="rotate(135 219.125 711.336)" fill="#FF94C8"/>
<rect x="60.9922" y="-0.390625" width="33.8432" height="34.398" transform="rotate(90 60.9922 -0.390625)" fill="#FF0000"/>
<rect x="194.801" y="687.008" width="33.8432" height="34.398" transform="rotate(135 194.801 687.008)" fill="#FF0000"/>
<ellipse cx="67.7083" cy="528.724" rx="6.10287" ry="5.82546" fill="#FF0000"/>
<ellipse cx="84.0183" cy="10.7044" rx="6.10287" ry="5.82546" transform="rotate(90 84.0183 10.7044)" fill="#FF0000"/>
<ellipse cx="203.237" cy="711.134" rx="6.10287" ry="5.82546" transform="rotate(135 203.237 711.134)" fill="#FF0000"/>
<rect x="164" y="523" width="22.747" height="108.187" fill="#FF94C8"/>
<rect x="61.1875" y="117" width="22.747" height="108.187" transform="rotate(90 61.1875 117)" fill="#FF94C8"/>
<rect x="122.585" y="778.5" width="22.747" height="108.187" transform="rotate(135 122.585 778.5)" fill="#FF94C8"/>
<rect x="198.023" y="-39" width="86.5497" height="39.3912" transform="rotate(90 198.023 -39)" fill="#FF94C8"/>
<rect x="312.054" y="754.852" width="86.5497" height="39.3912" transform="rotate(135 312.054 754.852)" fill="#FF94C8"/>
<circle cx="90.1766" cy="314.575" r="40.2234" fill="#FF94C8"/>
<circle cx="295.224" cy="56.2234" r="40.2234" transform="rotate(90 295.224 56.2234)" fill="#FF94C8"/>
<circle cx="338.776" cy="869.453" r="40.2234" transform="rotate(135 338.776 869.453)" fill="#FF94C8"/>
<rect x="348.74" y="31" width="9.4317" height="27.7403" transform="rotate(90 348.74 31)" fill="#FF0000"/>
<ellipse cx="295.103" cy="209.38" rx="6.38027" ry="6.10287" transform="rotate(90 295.103 209.38)" fill="#FF94C8"/>
<rect x="244" y="276" width="78.7825" height="77.118" fill="#FFDDDD"/>
<ellipse cx="145.418" cy="398.863" rx="19.4182" ry="18.8634" fill="black"/>
<rect x="19" y="430" width="86.5497" height="39.3912" fill="#FF94C8"/>
<rect x="90.4531" y="517.352" width="33.8432" height="34.398" fill="#FF94C8"/>
<rect x="90.4531" y="551.75" width="33.8432" height="34.398" fill="#FF94C8"/>
<rect x="56.6094" y="551.75" width="33.8432" height="34.398" fill="#FF0000"/>
<rect x="75" y="3042.66" width="165" height="237" transform="rotate(-7.89328 75 3042.66)" fill="#FF0000"/>
<rect x="196.523" y="2652.12" width="224.624" height="245.98" transform="rotate(74.9104 196.523 2652.12)" fill="#FF0000"/>
<rect x="322.646" y="3597.52" width="192.518" height="256.251" transform="rotate(135 322.646 3597.52)" fill="#FF0000"/>
<ellipse cx="216.863" cy="2875.42" rx="19.4182" ry="18.8634" transform="rotate(90 216.863 2875.42)" fill="#FF94C8"/>
<ellipse cx="241.069" cy="3566.07" rx="19.4182" ry="18.8634" transform="rotate(135 241.069 3566.07)" fill="#FF94C8"/>
<ellipse cx="189.38" cy="3083.1" rx="6.38027" ry="6.10287" fill="#FF94C8"/>
<ellipse cx="297.5" cy="3168" rx="6.5" ry="8" fill="#FF94C8"/>
<ellipse cx="148.103" cy="2915.38" rx="6.38027" ry="6.10287" transform="rotate(90 148.103 2915.38)" fill="#FF94C8"/>
<ellipse cx="172.827" cy="3574.83" rx="6.38027" ry="6.10287" transform="rotate(135 172.827 3574.83)" fill="#FF94C8"/>
<ellipse cx="291.827" cy="3411.83" rx="6.38027" ry="6.10287" transform="rotate(135 291.827 3411.83)" fill="#FF94C8"/>
<ellipse cx="193.369" cy="2980.45" rx="6.38027" ry="6.10287" fill="#FF94C8"/>
<rect x="149.816" y="2963.8" width="8.8769" height="71.57" fill="#FF94C8"/>
<rect x="291" y="2756" width="8.8769" height="71.57" fill="#FF94C8"/>
<rect x="173.676" y="2997.09" width="9.4317" height="27.7403" fill="#FF0000"/>
<rect x="229" y="3229" width="78" height="60" fill="#FF94C8"/>
<rect x="64" y="2875" width="89" height="33" transform="rotate(90 64 2875)" fill="#FF94C8"/>
<rect x="107.384" y="3574.23" width="106.725" height="61.1252" transform="rotate(135 107.384 3574.23)" fill="#FF94C8"/>
<rect x="95.3906" y="2733.45" width="47" height="41" transform="rotate(90 95.3906 2733.45)" fill="#FF94C8"/>
<rect width="36.8482" height="37.4523" transform="matrix(-0.649441 0.760412 -0.649441 -0.760412 194.578 3466.98)" fill="#FF94C8"/>
<rect x="54.3906" y="2733.45" width="47" height="41" transform="rotate(90 54.3906 2733.45)" fill="#FF94C8"/>
<rect width="36.8482" height="37.4523" transform="matrix(-0.649441 0.760412 -0.649441 -0.760412 170.254 3438.49)" fill="#FF94C8"/>
<rect x="47.2959" y="3217.35" width="39" height="46" fill="#FF94C8"/>
<rect x="95.3906" y="2699.61" width="33.8432" height="34.398" transform="rotate(90 95.3906 2699.61)" fill="#FF94C8"/>
<rect width="36.8482" height="37.4523" transform="matrix(-0.649441 0.760412 -0.649441 -0.760412 218.508 3438.96)" fill="#FF94C8"/>
<rect x="60.9922" y="2699.61" width="33.8432" height="34.398" transform="rotate(90 60.9922 2699.61)" fill="#FF0000"/>
<rect width="36.8482" height="37.4523" transform="matrix(-0.649441 0.760412 -0.649441 -0.760412 194.184 3410.48)" fill="#FF0000"/>
<ellipse cx="70.1029" cy="3247.83" rx="6.10287" ry="5.82546" fill="#FF0000"/>
<ellipse cx="84" cy="2715.5" rx="10.5" ry="6" transform="rotate(90 84 2715.5)" fill="#FF0000"/>
<ellipse cx="6.64476" cy="6.34273" rx="6.64476" ry="6.34273" transform="matrix(-0.649441 0.760412 -0.649441 -0.760412 212.869 3441.65)" fill="#FF0000"/>
<rect x="170" y="3242" width="27" height="108" fill="#FF94C8"/>
<rect x="72" y="2817" width="23" height="119" transform="rotate(90 72 2817)" fill="#FF94C8"/>
<rect x="120.585" y="3492.5" width="30.2917" height="108.187" transform="rotate(135 120.585 3492.5)" fill="#FF94C8"/>
<rect x="198" y="2661" width="114" height="53" transform="rotate(90 198 2661)" fill="#FF94C8"/>
<rect x="307.874" y="3474.67" width="86.5497" height="46.2082" transform="rotate(135 307.874 3474.67)" fill="#FF94C8"/>
<ellipse cx="92.5" cy="3046" rx="31.5" ry="40" fill="#FF94C8"/>
<circle cx="348.885" cy="3574.88" r="40.2234" transform="rotate(135 348.885 3574.88)" fill="#FF94C8"/>
<ellipse cx="295.103" cy="2909.38" rx="6.38027" ry="6.10287" transform="rotate(90 295.103 2909.38)" fill="#FF94C8"/>
<rect x="243.777" y="2981.22" width="79" height="90" transform="rotate(9.28426 243.777 2981.22)" fill="#FFDDDD"/>
<ellipse cx="147.5" cy="3111" rx="22.5" ry="19" fill="black"/>
<rect x="18" y="3153" width="87" height="46" fill="#FF94C8"/>
<rect x="86.2959" y="3217.35" width="38" height="46" fill="#FF94C8"/>
<rect x="86.2959" y="3263.35" width="38" height="46" fill="#FF94C8"/>
<rect x="47.2959" y="3263.35" width="39" height="46" fill="#FF0000"/>
<rect x="318" y="2761" width="95" height="77" transform="rotate(90 318 2761)" fill="#FFDDDD"/>
<ellipse cx="282.5" cy="2756" rx="40" ry="52.5" transform="rotate(90 282.5 2756)" fill="#FF94C8"/>
<rect x="346" y="2738" width="14" height="34" transform="rotate(90 346 2738)" fill="#FF0000"/>
<rect x="57.7598" y="1916.28" width="165" height="237" transform="rotate(-14.5525 57.7598 1916.28)" fill="#FF0000"/>
<rect x="157.997" y="1458" width="288.539" height="245.98" transform="rotate(67.3429 157.997 1458)" fill="#FF0000"/>
<rect x="343.275" y="2434.03" width="192.518" height="256.251" transform="rotate(121.131 343.275 2434.03)" fill="#FF0000"/>
<ellipse cx="227.396" cy="1757.05" rx="31.5" ry="19" transform="rotate(90 227.396 1757.05)" fill="#FF94C8"/>
<ellipse cx="273.201" cy="2423.35" rx="19.5867" ry="22.5632" transform="rotate(135 273.201 2423.35)" fill="#FF94C8"/>
<ellipse cx="194.777" cy="1932.65" rx="6.38027" ry="6.10287" fill="#FF94C8"/>
<ellipse cx="295.896" cy="2027.55" rx="6.5" ry="10" fill="#FF94C8"/>
<ellipse cx="124.5" cy="1803.93" rx="6.38027" ry="6.10287" transform="rotate(90 124.5 1803.93)" fill="#FF94C8"/>
<ellipse cx="160.224" cy="2430.38" rx="6.38027" ry="6.10287" transform="rotate(135 160.224 2430.38)" fill="#FF94C8"/>
<ellipse cx="304.224" cy="2269.38" rx="6.38027" ry="6.10287" transform="rotate(135 304.224 2269.38)" fill="#FF94C8"/>
<ellipse cx="202.777" cy="1839.65" rx="6.38027" ry="6.10287" fill="#FF94C8"/>
<ellipse cx="295.335" cy="2516.09" rx="6.38027" ry="6.10287" transform="rotate(135 295.335 2516.09)" fill="#FF94C8"/>
<rect x="145.396" y="1824.55" width="13" height="72" fill="#FF94C8"/>
<rect x="296.396" y="1605.55" width="8.8769" height="71.57" fill="#FF94C8"/>
<rect x="185.396" y="1853.55" width="9.4317" height="27.7403" fill="#FF0000"/>
<rect x="297.494" y="2490.4" width="9.4317" height="27.7403" transform="rotate(135 297.494 2490.4)" fill="#FF0000"/>
<rect x="260.221" y="2582.59" width="78.7825" height="77.118" transform="rotate(135 260.221 2582.59)" fill="#FFDDDD"/>
<rect x="246.396" y="2085.55" width="78" height="60" fill="#FF94C8"/>
<rect x="87.3965" y="1744.55" width="89" height="33" transform="rotate(90 87.3965 1744.55)" fill="#FF94C8"/>
<rect x="112.78" y="2423.77" width="106.725" height="61.1252" transform="rotate(135 112.78 2423.77)" fill="#FF94C8"/>
<rect x="100.396" y="1604.55" width="47" height="41" transform="rotate(90 100.396 1604.55)" fill="#FF94C8"/>
<rect width="36.8482" height="37.4523" transform="matrix(-0.649441 0.760412 -0.649441 -0.760412 199.975 2316.52)" fill="#FF94C8"/>
<rect x="59.7871" y="1604.39" width="47" height="41" transform="rotate(90 59.7871 1604.39)" fill="#FF94C8"/>
<rect width="36.8482" height="37.4523" transform="matrix(-0.649441 0.760412 -0.649441 -0.760412 175.65 2288.04)" fill="#FF94C8"/>
<rect x="53.3965" y="2096.55" width="39" height="52" fill="#FF94C8"/>
<rect x="100.396" y="1575.55" width="29" height="34" transform="rotate(90 100.396 1575.55)" fill="#FF94C8"/>
<rect width="36.8482" height="37.4523" transform="matrix(-0.649441 0.760412 -0.649441 -0.760412 223.904 2288.51)" fill="#FF94C8"/>
<rect x="66.3887" y="1549.16" width="33.8432" height="34.398" transform="rotate(90 66.3887 1549.16)" fill="#FF0000"/>
<rect width="36.8482" height="37.4523" transform="matrix(-0.649441 0.760412 -0.649441 -0.760412 199.58 2260.02)" fill="#FF0000"/>
<ellipse cx="70.3965" cy="2136.05" rx="6" ry="6.5" fill="#FF0000"/>
<ellipse cx="77.3965" cy="1615.05" rx="10.5" ry="6" transform="rotate(90 77.3965 1615.05)" fill="#FF0000"/>
<ellipse cx="6.64476" cy="6.34273" rx="6.64476" ry="6.34273" transform="matrix(-0.649441 0.760412 -0.649441 -0.760412 218.266 2291.2)" fill="#FF0000"/>
<rect x="188.396" y="2096.55" width="27" height="108" fill="#FF94C8"/>
<rect x="77.3965" y="1666.55" width="23" height="119" transform="rotate(90 77.3965 1666.55)" fill="#FF94C8"/>
<rect x="129.836" y="2349.05" width="45.1699" height="108.187" transform="rotate(135 129.836 2349.05)" fill="#FF94C8"/>
<rect x="190.396" y="1610.55" width="79" height="53" transform="rotate(90 190.396 1610.55)" fill="#FF94C8"/>
<rect x="319.156" y="2360.94" width="86.5497" height="51.5921" transform="rotate(149.364 319.156 2360.94)" fill="#FF94C8"/>
<ellipse cx="97.8965" cy="1895.55" rx="31.5" ry="40" fill="#FF94C8"/>
<circle cx="353.281" cy="2450.43" r="40.2234" transform="rotate(135 353.281 2450.43)" fill="#FF94C8"/>
<ellipse cx="318.5" cy="1781.93" rx="6.38027" ry="6.10287" transform="rotate(90 318.5 1781.93)" fill="#FF94C8"/>
<rect x="257.916" y="1840.55" width="86.0878" height="90" transform="rotate(9.28426 257.916 1840.55)" fill="#FFDDDD"/>
<ellipse cx="152.896" cy="1960.55" rx="22.5" ry="19" fill="black"/>
<rect x="34.3965" y="2007.55" width="90" height="48" fill="#FF94C8"/>
<rect x="92.3965" y="2096.55" width="38" height="52" fill="#FF94C8"/>
<rect x="92.3965" y="2148.55" width="38" height="51" fill="#FF94C8"/>
<rect x="53.3965" y="2148.55" width="39" height="51" fill="#FF0000"/>
<rect x="336.396" y="1614.55" width="95" height="62" transform="rotate(90 336.396 1614.55)" fill="#FFDDDD"/>
<ellipse cx="285.896" cy="1627.55" rx="40" ry="60.5" transform="rotate(90 285.896 1627.55)" fill="#FF94C8"/>
<rect x="357.396" y="1611.55" width="14" height="34" transform="rotate(90 357.396 1611.55)" fill="#FF0000"/>
<rect x="57.7041" y="1173.66" width="165" height="237" transform="rotate(-7.89328 57.7041 1173.66)" fill="#FF0000"/>
<ellipse cx="172.084" cy="1214.1" rx="6.38027" ry="6.10287" fill="#FF94C8"/>
<ellipse cx="94.1032" cy="1040.38" rx="6.38027" ry="6.10287" transform="rotate(90 94.1032 1040.38)" fill="#FF94C8"/>
<ellipse cx="176.073" cy="1111.45" rx="6.38027" ry="6.10287" fill="#FF94C8"/>
<rect x="211.704" y="1360" width="78" height="60" fill="#FF94C8"/>
<rect x="30" y="1348.35" width="39" height="46" fill="#FF94C8"/>
<ellipse cx="52.807" cy="1378.83" rx="6.10287" ry="5.82546" fill="#FF0000"/>
<rect x="152.704" y="1373" width="27" height="108" fill="#FF94C8"/>
<ellipse cx="75.2041" cy="1177" rx="31.5" ry="40" fill="#FF94C8"/>
<rect x="226.481" y="1112.22" width="79" height="90" transform="rotate(9.28426 226.481 1112.22)" fill="#FFDDDD"/>
<ellipse cx="130.204" cy="1242" rx="22.5" ry="19" fill="black"/>
<rect x="69" y="1348.35" width="38" height="46" fill="#FF94C8"/>
<rect x="69" y="1394.35" width="38" height="46" fill="#FF94C8"/>
<rect x="30" y="1394.35" width="39" height="46" fill="#FF0000"/>
</g>
<defs>
<clipPath id="clip0_696_2328">
<rect width="360" height="3600" fill="white"/>
</clipPath>
</defs>
</svg>
