<svg width="4500" height="4500" viewBox="0 0 4500 4500" fill="none" xmlns="http://www.w3.org/2000/svg">
<g clip-path="url(#clip0_676_1801)">
<rect width="4500" height="4500" fill="#FF0000"/>
<path d="M6326.66 -580.239C6339.51 -414.257 6346 -247.076 6346 -79.0001C6346 89.0754 6339.51 256.256 6326.66 422.238L14.1795 -67.767C14.4213 -70.8925 14.5875 -74.6164 14.5875 -78.9998C14.5875 -83.3829 14.4213 -87.1071 14.1795 -90.2325L6326.66 -580.239ZM8.09536 -41.1155C9.71451 -45.0145 10.9591 -48.8464 11.9041 -52.7756L6167.27 1432.08C6087.59 1763.38 5982.43 2084.77 5854.07 2393.86L8.09536 -41.1155ZM5854.07 -2551.86C5982.43 -2242.77 6087.59 -1921.38 6167.27 -1590.08L11.9041 -105.23C10.9592 -109.158 9.71405 -112.986 8.09536 -116.884L5854.07 -2551.86ZM-9.84158 -12.6931C-5.44948 -17.8215 -1.79022 -22.9087 1.18893 -27.7403L5388.26 3303.84C5211.51 3590.49 5013.26 3861.78 4795.89 4115.57L-9.84158 -12.6931ZM4795.89 -4273.57C5013.26 -4019.78 5211.51 -3748.49 5388.26 -3461.84L1.18893 -130.265C-1.78992 -135.096 -5.45025 -140.179 -9.84158 -145.306L4795.89 -4273.57ZM-40.8432 13.8593C-35.4522 10.5543 -30.0175 6.63672 -24.7117 2.11881L4076.5 4832.9C3822.43 5049.24 3551.07 5246.4 3264.58 5422.02L-40.8432 13.8593ZM3264.58 -5580.02C3551.07 -5404.4 3822.43 -5207.24 4076.5 -4990.9L-24.7117 -160.118C-30.0174 -164.636 -35.4523 -168.554 -40.8432 -171.859L3264.58 -5580.02ZM-71.5234 26.733C-66.3087 25.4862 -61.3549 23.8782 -56.511 21.8783L2356.6 5884.14C2048.61 6011.3 1728.55 6115.41 1398.79 6194.26L-71.5234 26.733ZM1398.79 -6352.26C1728.55 -6273.41 2048.61 -6169.3 2356.6 -6042.14L-56.511 -179.878C-61.3549 -181.878 -66.3087 -183.486 -71.5234 -184.733L1398.79 -6352.26ZM-103.996 6371C-271.102 6371 -437.325 6364.58 -602.36 6351.88L-117.358 29.6372C-113.529 29.9318 -109.092 30.1264 -103.997 30.1264C-98.9028 30.1263 -94.4701 29.9318 -90.6413 29.6372L394.367 6351.88C229.332 6364.58 63.1096 6371 -103.996 6371ZM-103.997 -188.126C-109.092 -188.126 -113.529 -187.931 -117.358 -187.637L-602.367 -6509.88C-437.33 -6522.58 -271.104 -6529 -103.997 -6529C63.1081 -6529 229.327 -6522.58 394.361 -6509.88L-90.6413 -187.637C-94.4701 -187.931 -98.9028 -188.126 -103.997 -188.126ZM-151.488 21.8783C-146.645 23.8782 -141.691 25.4862 -136.476 26.733L-1606.79 6194.26C-1936.55 6115.41 -2256.61 6011.3 -2564.6 5884.14L-151.488 21.8783ZM-2564.6 -6042.14C-2256.61 -6169.3 -1936.55 -6273.41 -1606.79 -6352.26L-136.476 -184.733C-141.691 -183.486 -146.645 -181.878 -151.488 -179.878L-2564.6 -6042.14ZM-183.288 2.11882C-177.982 6.63673 -172.547 10.5543 -167.156 13.8593L-3472.58 5422.02C-3759.07 5246.4 -4030.43 5049.24 -4284.5 4832.9L-183.288 2.11882ZM-4284.5 -4990.9C-4030.43 -5207.24 -3759.07 -5404.4 -3472.58 -5580.02L-167.156 -171.859C-172.547 -168.554 -177.982 -164.636 -183.288 -160.118L-4284.5 -4990.9ZM-209.188 -27.7403C-206.209 -22.9086 -202.55 -17.8214 -198.158 -12.6931L-5003.89 4115.57C-5221.26 3861.78 -5419.51 3590.49 -5596.26 3303.84L-209.188 -27.7403ZM-5596.26 -3461.84C-5419.51 -3748.49 -5221.26 -4019.77 -5003.89 -4273.57L-198.158 -145.306C-202.549 -140.179 -206.209 -135.096 -209.188 -130.265L-5596.26 -3461.84ZM-219.904 -52.7756C-218.958 -48.8463 -217.714 -45.0145 -216.095 -41.1155L-6062.07 2393.86C-6190.43 2084.77 -6295.59 1763.38 -6375.27 1432.08L-219.904 -52.7756ZM-6375.27 -1590.08C-6295.59 -1921.38 -6190.43 -2242.77 -6062.07 -2551.86L-216.095 -116.884C-217.713 -112.986 -218.959 -109.158 -219.904 -105.23L-6375.27 -1590.08ZM-6554 -78.9994C-6554 -247.076 -6547.51 -414.261 -6534.66 -580.244L-222.179 -90.2325C-222.421 -87.1071 -222.587 -83.3829 -222.587 -78.9998C-222.587 -74.6164 -222.421 -70.8925 -222.179 -67.767L-6534.66 422.239C-6547.51 256.257 -6554 89.0761 -6554 -78.9994Z" fill="black"/>
</g>
<defs>
<clipPath id="clip0_676_1801">
<rect width="4500" height="4500" fill="white"/>
</clipPath>
</defs>
</svg>
