<svg width="1817" height="1817" viewBox="0 0 1817 1817" fill="none" xmlns="http://www.w3.org/2000/svg">
<g clip-path="url(#clip0_676_1801)">
<rect width="1817" height="1817" fill="#FF0000"/>
<path d="M4619.37 1723.87C4626.78 1819.61 4630.53 1916.04 4630.53 2012.99C4630.53 2109.93 4626.78 2206.36 4619.37 2302.1L978.326 2019.47C978.466 2017.66 978.562 2015.51 978.562 2012.99C978.562 2010.46 978.466 2008.31 978.326 2006.51L4619.37 1723.87ZM974.817 2034.84C975.751 2032.59 976.469 2030.38 977.014 2028.11L4527.44 2884.58C4481.48 3075.67 4420.82 3261.05 4346.78 3439.33L974.817 2034.84ZM4346.78 586.638C4420.82 764.922 4481.48 950.297 4527.44 1141.39L977.014 1997.86C976.469 1995.59 975.751 1993.38 974.817 1991.13L4346.78 586.638ZM964.471 2051.23C967.004 2048.27 969.115 2045.34 970.833 2042.55L4078.1 3964.21C3976.15 4129.55 3861.8 4286.03 3736.42 4432.42L964.471 2051.23ZM3736.42 -406.444C3861.8 -260.057 3976.15 -103.577 4078.1 61.759L970.833 1983.42C969.115 1980.63 967.004 1977.7 964.471 1974.74L3736.42 -406.444ZM946.589 2066.55C949.699 2064.64 952.833 2062.38 955.894 2059.78L3321.48 4846.17C3174.93 4970.96 3018.41 5084.68 2853.16 5185.98L946.589 2066.55ZM2853.16 -1160.01C3018.41 -1058.71 3174.93 -944.99 3321.48 -820.201L955.894 1966.2C952.834 1963.59 949.699 1961.33 946.589 1959.42L2853.16 -1160.01ZM928.893 2073.97C931.901 2073.25 934.758 2072.33 937.552 2071.17L2329.44 5452.53C2151.79 5525.88 1967.18 5585.93 1776.97 5631.41L928.893 2073.97ZM1776.97 -1605.44C1967.18 -1559.96 2151.79 -1499.9 2329.44 -1426.56L937.552 1954.8C934.758 1953.65 931.901 1952.72 928.893 1952L1776.97 -1605.44ZM910.162 5733.35C813.776 5733.35 717.898 5729.65 622.706 5722.32L902.455 2075.65C904.664 2075.82 907.223 2075.93 910.162 2075.93C913.1 2075.93 915.657 2075.82 917.866 2075.65L1197.62 5722.32C1102.43 5729.65 1006.55 5733.35 910.162 5733.35ZM910.162 1950.04C907.223 1950.04 904.664 1950.15 902.455 1950.32L622.702 -1696.35C717.895 -1703.67 813.775 -1707.38 910.162 -1707.38C1006.55 -1707.38 1102.42 -1703.67 1197.62 -1696.35L917.866 1950.32C915.657 1950.15 913.1 1950.04 910.162 1950.04ZM882.769 2071.17C885.563 2072.33 888.42 2073.25 891.428 2073.97L43.3522 5631.41C-146.857 5585.93 -331.465 5525.88 -509.114 5452.53L882.769 2071.17ZM-509.115 -1426.56C-331.465 -1499.9 -146.857 -1559.96 43.3519 -1605.44L891.428 1952C888.42 1952.72 885.563 1953.65 882.769 1954.8L-509.115 -1426.56ZM864.427 2059.78C867.487 2062.38 870.622 2064.64 873.732 2066.55L-1032.84 5185.98C-1198.08 5084.68 -1354.61 4970.96 -1501.16 4846.17L864.427 2059.78ZM-1501.16 -820.201C-1354.61 -944.989 -1198.08 -1058.71 -1032.84 -1160.01L873.732 1959.42C870.622 1961.33 867.487 1963.59 864.427 1966.2L-1501.16 -820.201ZM849.488 2042.55C851.206 2045.34 853.317 2048.27 855.85 2051.23L-1916.1 4432.42C-2041.48 4286.03 -2155.83 4129.55 -2257.78 3964.21L849.488 2042.55ZM-2257.78 61.7593C-2155.83 -103.577 -2041.48 -260.056 -1916.1 -406.444L855.85 1974.74C853.317 1977.7 851.206 1980.63 849.488 1983.42L-2257.78 61.7593ZM843.307 2028.11C843.852 2030.38 844.57 2032.59 845.504 2034.84L-2526.46 3439.33C-2600.5 3261.05 -2661.15 3075.67 -2707.12 2884.58L843.307 2028.11ZM-2707.12 1141.4C-2661.16 950.298 -2600.5 764.922 -2526.46 586.639L845.504 1991.13C844.57 1993.38 843.852 1995.59 843.307 1997.86L-2707.12 1141.4ZM-2810.21 2012.99C-2810.21 1916.04 -2806.46 1819.61 -2799.05 1723.87L841.995 2006.51C841.855 2008.31 841.759 2010.46 841.759 2012.99C841.759 2015.51 841.855 2017.66 841.995 2019.47L-2799.05 2302.1C-2806.46 2206.36 -2810.21 2109.93 -2810.21 2012.99Z" fill="black"/>
</g>
<defs>
<clipPath id="clip0_676_1801">
<rect width="1817" height="1817" fill="white"/>
</clipPath>
</defs>
</svg>
