<svg width="360" height="1778" viewBox="0 0 360 1778" fill="none" xmlns="http://www.w3.org/2000/svg">
<rect width="360" height="1778" fill="#FF94C8"/>
<circle cx="41" cy="37" r="21" fill="black"/>
<circle cx="160" cy="37" r="21" fill="black"/>
<circle cx="100" cy="477" r="21" fill="black"/>
<circle cx="331" cy="477" r="21" fill="black"/>
<circle cx="273" cy="38" r="21" fill="black"/>
<circle cx="213" cy="478" r="21" fill="black"/>
<circle cx="41" cy="97" r="30" fill="black"/>
<circle cx="160" cy="97" r="30" fill="black"/>
<circle cx="100" cy="537" r="30" fill="black"/>
<ellipse cx="329.5" cy="537" rx="28.5" ry="30" fill="black"/>
<circle cx="273" cy="98" r="30" fill="black"/>
<circle cx="213" cy="538" r="30" fill="black"/>
<circle cx="41" cy="151" r="15" fill="black"/>
<circle cx="160" cy="151" r="15" fill="black"/>
<circle cx="100" cy="591" r="15" fill="black"/>
<circle cx="331" cy="591" r="15" fill="black"/>
<circle cx="273" cy="152" r="15" fill="black"/>
<circle cx="213" cy="592" r="15" fill="black"/>
<circle cx="41" cy="193" r="18" fill="black"/>
<circle cx="160" cy="193" r="18" fill="black"/>
<circle cx="100" cy="633" r="18" fill="black"/>
<circle cx="331" cy="633" r="18" fill="black"/>
<circle cx="273" cy="194" r="18" fill="black"/>
<circle cx="213" cy="634" r="18" fill="black"/>
<circle cx="40.5" cy="230.5" r="10.5" fill="black"/>
<circle cx="159.5" cy="230.5" r="10.5" fill="black"/>
<circle cx="99.5" cy="670.5" r="10.5" fill="black"/>
<circle cx="330.5" cy="670.5" r="10.5" fill="black"/>
<circle cx="272.5" cy="231.5" r="10.5" fill="black"/>
<circle cx="212.5" cy="671.5" r="10.5" fill="black"/>
<circle cx="41" cy="274" r="24" fill="black"/>
<circle cx="160" cy="274" r="24" fill="black"/>
<circle cx="100" cy="714" r="24" fill="black"/>
<circle cx="331" cy="714" r="24" fill="black"/>
<circle cx="273" cy="275" r="24" fill="black"/>
<circle cx="213" cy="715" r="24" fill="black"/>
<circle cx="41" cy="328" r="21" fill="black"/>
<circle cx="160" cy="328" r="21" fill="black"/>
<circle cx="100" cy="768" r="21" fill="black"/>
<circle cx="331" cy="768" r="21" fill="black"/>
<circle cx="273" cy="329" r="21" fill="black"/>
<circle cx="213" cy="769" r="21" fill="black"/>
<circle cx="41" cy="372" r="14" fill="black"/>
<circle cx="160" cy="372" r="14" fill="black"/>
<circle cx="100" cy="812" r="14" fill="black"/>
<circle cx="331" cy="812" r="14" fill="black"/>
<circle cx="273" cy="373" r="14" fill="black"/>
<circle cx="213" cy="813" r="14" fill="black"/>
<circle cx="40.5" cy="403.5" r="8.5" fill="black"/>
<circle cx="159.5" cy="403.5" r="8.5" fill="black"/>
<circle cx="99.5" cy="843.5" r="8.5" fill="black"/>
<circle cx="330.5" cy="843.5" r="8.5" fill="black"/>
<circle cx="272.5" cy="404.5" r="8.5" fill="black"/>
<circle cx="212.5" cy="844.5" r="8.5" fill="black"/>
<circle cx="40.5" cy="433.5" r="12.5" fill="black"/>
<circle cx="159.5" cy="433.5" r="12.5" fill="black"/>
<circle cx="99.5" cy="873.5" r="12.5" fill="black"/>
<circle cx="330.5" cy="873.5" r="12.5" fill="black"/>
<circle cx="272.5" cy="434.5" r="12.5" fill="black"/>
<circle cx="212.5" cy="874.5" r="12.5" fill="black"/>
<circle cx="21" cy="21" r="21" transform="matrix(1 0 0 -1 79 446)" fill="black"/>
<circle cx="21" cy="21" r="21" transform="matrix(1 0 0 -1 19 885)" fill="black"/>
<circle cx="21" cy="21" r="21" transform="matrix(1 0 0 -1 193 446)" fill="black"/>
<circle cx="21" cy="21" r="21" transform="matrix(1 0 0 -1 133 886)" fill="black"/>
<circle cx="21" cy="21" r="21" transform="matrix(1 0 0 -1 309 447)" fill="black"/>
<circle cx="21" cy="21" r="21" transform="matrix(1 0 0 -1 249 887)" fill="black"/>
<circle cx="30" cy="30" r="30" transform="matrix(1 0 0 -1 70 395)" fill="black"/>
<circle cx="30" cy="30" r="30" transform="matrix(1 0 0 -1 10 834)" fill="black"/>
<circle cx="30" cy="30" r="30" transform="matrix(1 0 0 -1 184 395)" fill="black"/>
<circle cx="30" cy="30" r="30" transform="matrix(1 0 0 -1 124 835)" fill="black"/>
<ellipse cx="29" cy="30" rx="29" ry="30" transform="matrix(1 0 0 -1 300 396)" fill="black"/>
<circle cx="30" cy="30" r="30" transform="matrix(1 0 0 -1 240 836)" fill="black"/>
<circle cx="15" cy="15" r="15" transform="matrix(1 0 0 -1 85 326)" fill="black"/>
<circle cx="15" cy="15" r="15" transform="matrix(1 0 0 -1 25 765)" fill="black"/>
<circle cx="15" cy="15" r="15" transform="matrix(1 0 0 -1 199 326)" fill="black"/>
<circle cx="15" cy="15" r="15" transform="matrix(1 0 0 -1 139 766)" fill="black"/>
<circle cx="15" cy="15" r="15" transform="matrix(1 0 0 -1 315 327)" fill="black"/>
<circle cx="15" cy="15" r="15" transform="matrix(1 0 0 -1 255 767)" fill="black"/>
<circle cx="18" cy="18" r="18" transform="matrix(1 0 0 -1 82 287)" fill="black"/>
<circle cx="18" cy="18" r="18" transform="matrix(1 0 0 -1 22 726)" fill="black"/>
<circle cx="18" cy="18" r="18" transform="matrix(1 0 0 -1 196 287)" fill="black"/>
<circle cx="18" cy="18" r="18" transform="matrix(1 0 0 -1 136 727)" fill="black"/>
<circle cx="18" cy="18" r="18" transform="matrix(1 0 0 -1 312 288)" fill="black"/>
<circle cx="18" cy="18" r="18" transform="matrix(1 0 0 -1 252 728)" fill="black"/>
<circle cx="10.5" cy="10.5" r="10.5" transform="matrix(1 0 0 -1 89 242)" fill="black"/>
<circle cx="10.5" cy="10.5" r="10.5" transform="matrix(1 0 0 -1 203 242)" fill="black"/>
<circle cx="10.5" cy="10.5" r="10.5" transform="matrix(1 0 0 -1 143 682)" fill="black"/>
<circle cx="10.5" cy="10.5" r="10.5" transform="matrix(1 0 0 -1 319 243)" fill="black"/>
<circle cx="10.5" cy="10.5" r="10.5" transform="matrix(1 0 0 -1 259 683)" fill="black"/>
<circle cx="24" cy="24" r="24" transform="matrix(1 0 0 -1 76 212)" fill="black"/>
<circle cx="24" cy="24" r="24" transform="matrix(1 0 0 -1 16 651)" fill="black"/>
<circle cx="24" cy="24" r="24" transform="matrix(1 0 0 -1 190 212)" fill="black"/>
<circle cx="24" cy="24" r="24" transform="matrix(1 0 0 -1 130 652)" fill="black"/>
<circle cx="24" cy="24" r="24" transform="matrix(1 0 0 -1 306 213)" fill="black"/>
<circle cx="24" cy="24" r="24" transform="matrix(1 0 0 -1 246 653)" fill="black"/>
<circle cx="21" cy="21" r="21" transform="matrix(1 0 0 -1 79 155)" fill="black"/>
<circle cx="21" cy="21" r="21" transform="matrix(1 0 0 -1 19 594)" fill="black"/>
<circle cx="21" cy="21" r="21" transform="matrix(1 0 0 -1 193 155)" fill="black"/>
<circle cx="21" cy="21" r="21" transform="matrix(1 0 0 -1 133 595)" fill="black"/>
<circle cx="21" cy="21" r="21" transform="matrix(1 0 0 -1 309 156)" fill="black"/>
<circle cx="21" cy="21" r="21" transform="matrix(1 0 0 -1 249 596)" fill="black"/>
<circle cx="14" cy="14" r="14" transform="matrix(1 0 0 -1 86 104)" fill="black"/>
<circle cx="14" cy="14" r="14" transform="matrix(1 0 0 -1 26 543)" fill="black"/>
<circle cx="14" cy="14" r="14" transform="matrix(1 0 0 -1 200 104)" fill="black"/>
<circle cx="14" cy="14" r="14" transform="matrix(1 0 0 -1 140 544)" fill="black"/>
<circle cx="14" cy="14" r="14" transform="matrix(1 0 0 -1 316 105)" fill="black"/>
<circle cx="14" cy="14" r="14" transform="matrix(1 0 0 -1 256 545)" fill="black"/>
<circle cx="8.5" cy="8.5" r="8.5" transform="matrix(1 0 0 -1 91 67)" fill="black"/>
<circle cx="8.5" cy="8.5" r="8.5" transform="matrix(1 0 0 -1 31 506)" fill="black"/>
<circle cx="8.5" cy="8.5" r="8.5" transform="matrix(1 0 0 -1 205 67)" fill="black"/>
<circle cx="8.5" cy="8.5" r="8.5" transform="matrix(1 0 0 -1 145 507)" fill="black"/>
<circle cx="8.5" cy="8.5" r="8.5" transform="matrix(1 0 0 -1 321 68)" fill="black"/>
<circle cx="8.5" cy="8.5" r="8.5" transform="matrix(1 0 0 -1 261 508)" fill="black"/>
<circle cx="12.5" cy="12.5" r="12.5" transform="matrix(1 0 0 -1 87 41)" fill="black"/>
<circle cx="12.5" cy="12.5" r="12.5" transform="matrix(1 0 0 -1 27 480)" fill="black"/>
<circle cx="12.5" cy="12.5" r="12.5" transform="matrix(1 0 0 -1 201 41)" fill="black"/>
<circle cx="12.5" cy="12.5" r="12.5" transform="matrix(1 0 0 -1 141 481)" fill="black"/>
<circle cx="12.5" cy="12.5" r="12.5" transform="matrix(1 0 0 -1 317 42)" fill="black"/>
<circle cx="12.5" cy="12.5" r="12.5" transform="matrix(1 0 0 -1 257 482)" fill="black"/>
<circle cx="34" cy="31" r="21" fill="#FF0000"/>
<circle cx="153" cy="31" r="21" fill="#FF0000"/>
<circle cx="93" cy="471" r="21" fill="#FF0000"/>
<circle cx="324" cy="471" r="21" fill="#FF0000"/>
<circle cx="266" cy="32" r="21" fill="#FF0000"/>
<circle cx="206" cy="472" r="21" fill="#FF0000"/>
<circle cx="34" cy="91" r="30" fill="#FF0000"/>
<circle cx="153" cy="91" r="30" fill="#FF0000"/>
<circle cx="93" cy="531" r="30" fill="#FF0000"/>
<circle cx="324" cy="531" r="30" fill="#FF0000"/>
<circle cx="266" cy="92" r="30" fill="#FF0000"/>
<circle cx="206" cy="532" r="30" fill="#FF0000"/>
<circle cx="34" cy="145" r="15" fill="#FF0000"/>
<circle cx="153" cy="145" r="15" fill="#FF0000"/>
<circle cx="93" cy="585" r="15" fill="#FF0000"/>
<circle cx="324" cy="585" r="15" fill="#FF0000"/>
<circle cx="266" cy="146" r="15" fill="#FF0000"/>
<circle cx="206" cy="586" r="15" fill="#FF0000"/>
<circle cx="34" cy="187" r="18" fill="#FF0000"/>
<circle cx="153" cy="187" r="18" fill="#FF0000"/>
<circle cx="93" cy="627" r="18" fill="#FF0000"/>
<circle cx="324" cy="627" r="18" fill="#FF0000"/>
<circle cx="266" cy="188" r="18" fill="#FF0000"/>
<circle cx="206" cy="628" r="18" fill="#FF0000"/>
<circle cx="33.5" cy="224.5" r="10.5" fill="#FF0000"/>
<circle cx="152.5" cy="224.5" r="10.5" fill="#FF0000"/>
<circle cx="92.5" cy="664.5" r="10.5" fill="#FF0000"/>
<circle cx="323.5" cy="664.5" r="10.5" fill="#FF0000"/>
<circle cx="265.5" cy="225.5" r="10.5" fill="#FF0000"/>
<circle cx="205.5" cy="665.5" r="10.5" fill="#FF0000"/>
<circle cx="34" cy="268" r="24" fill="#FF0000"/>
<circle cx="153" cy="268" r="24" fill="#FF0000"/>
<circle cx="93" cy="708" r="24" fill="#FF0000"/>
<circle cx="324" cy="708" r="24" fill="#FF0000"/>
<circle cx="266" cy="269" r="24" fill="#FF0000"/>
<circle cx="206" cy="709" r="24" fill="#FF0000"/>
<circle cx="34" cy="322" r="21" fill="#FF0000"/>
<circle cx="153" cy="322" r="21" fill="#FF0000"/>
<circle cx="93" cy="762" r="21" fill="#FF0000"/>
<circle cx="324" cy="762" r="21" fill="#FF0000"/>
<circle cx="266" cy="323" r="21" fill="#FF0000"/>
<circle cx="206" cy="763" r="21" fill="#FF0000"/>
<circle cx="34" cy="366" r="14" fill="#FF0000"/>
<circle cx="153" cy="366" r="14" fill="#FF0000"/>
<circle cx="93" cy="806" r="14" fill="#FF0000"/>
<circle cx="324" cy="806" r="14" fill="#FF0000"/>
<circle cx="266" cy="367" r="14" fill="#FF0000"/>
<circle cx="206" cy="807" r="14" fill="#FF0000"/>
<circle cx="33.5" cy="397.5" r="8.5" fill="#FF0000"/>
<circle cx="152.5" cy="397.5" r="8.5" fill="#FF0000"/>
<circle cx="92.5" cy="837.5" r="8.5" fill="#FF0000"/>
<circle cx="323.5" cy="837.5" r="8.5" fill="#FF0000"/>
<circle cx="265.5" cy="398.5" r="8.5" fill="#FF0000"/>
<circle cx="205.5" cy="838.5" r="8.5" fill="#FF0000"/>
<circle cx="33.5" cy="427.5" r="12.5" fill="#FF0000"/>
<circle cx="152.5" cy="427.5" r="12.5" fill="#FF0000"/>
<circle cx="92.5" cy="867.5" r="12.5" fill="#FF0000"/>
<circle cx="323.5" cy="867.5" r="12.5" fill="#FF0000"/>
<circle cx="265.5" cy="428.5" r="12.5" fill="#FF0000"/>
<circle cx="205.5" cy="868.5" r="12.5" fill="#FF0000"/>
<circle cx="21" cy="21" r="21" transform="matrix(1 0 0 -1 72 440)" fill="#FF0000"/>
<circle cx="21" cy="21" r="21" transform="matrix(1 0 0 -1 12 879)" fill="#FF0000"/>
<circle cx="21" cy="21" r="21" transform="matrix(1 0 0 -1 186 440)" fill="#FF0000"/>
<circle cx="21" cy="21" r="21" transform="matrix(1 0 0 -1 126 880)" fill="#FF0000"/>
<circle cx="21" cy="21" r="21" transform="matrix(1 0 0 -1 302 441)" fill="#FF0000"/>
<circle cx="21" cy="21" r="21" transform="matrix(1 0 0 -1 242 881)" fill="#FF0000"/>
<circle cx="30" cy="30" r="30" transform="matrix(1 0 0 -1 63 389)" fill="#FF0000"/>
<circle cx="30" cy="30" r="30" transform="matrix(1 0 0 -1 3 828)" fill="#FF0000"/>
<circle cx="30" cy="30" r="30" transform="matrix(1 0 0 -1 177 389)" fill="#FF0000"/>
<circle cx="30" cy="30" r="30" transform="matrix(1 0 0 -1 117 829)" fill="#FF0000"/>
<circle cx="30" cy="30" r="30" transform="matrix(1 0 0 -1 293 390)" fill="#FF0000"/>
<circle cx="30" cy="30" r="30" transform="matrix(1 0 0 -1 233 830)" fill="#FF0000"/>
<circle cx="15" cy="15" r="15" transform="matrix(1 0 0 -1 78 320)" fill="#FF0000"/>
<circle cx="15" cy="15" r="15" transform="matrix(1 0 0 -1 18 759)" fill="#FF0000"/>
<circle cx="15" cy="15" r="15" transform="matrix(1 0 0 -1 192 320)" fill="#FF0000"/>
<circle cx="15" cy="15" r="15" transform="matrix(1 0 0 -1 132 760)" fill="#FF0000"/>
<circle cx="15" cy="15" r="15" transform="matrix(1 0 0 -1 308 321)" fill="#FF0000"/>
<circle cx="15" cy="15" r="15" transform="matrix(1 0 0 -1 248 761)" fill="#FF0000"/>
<circle cx="18" cy="18" r="18" transform="matrix(1 0 0 -1 75 281)" fill="#FF0000"/>
<circle cx="18" cy="18" r="18" transform="matrix(1 0 0 -1 15 720)" fill="#FF0000"/>
<circle cx="18" cy="18" r="18" transform="matrix(1 0 0 -1 189 281)" fill="#FF0000"/>
<circle cx="18" cy="18" r="18" transform="matrix(1 0 0 -1 129 721)" fill="#FF0000"/>
<circle cx="18" cy="18" r="18" transform="matrix(1 0 0 -1 305 282)" fill="#FF0000"/>
<circle cx="18" cy="18" r="18" transform="matrix(1 0 0 -1 245 722)" fill="#FF0000"/>
<circle cx="10.5" cy="10.5" r="10.5" transform="matrix(1 0 0 -1 82 236)" fill="#FF0000"/>
<circle cx="10.5" cy="10.5" r="10.5" transform="matrix(1 0 0 -1 22 675)" fill="#FF0000"/>
<circle cx="10.5" cy="10.5" r="10.5" transform="matrix(1 0 0 -1 196 236)" fill="#FF0000"/>
<circle cx="10.5" cy="10.5" r="10.5" transform="matrix(1 0 0 -1 136 676)" fill="#FF0000"/>
<circle cx="10.5" cy="10.5" r="10.5" transform="matrix(1 0 0 -1 312 237)" fill="#FF0000"/>
<circle cx="10.5" cy="10.5" r="10.5" transform="matrix(1 0 0 -1 252 677)" fill="#FF0000"/>
<circle cx="24" cy="24" r="24" transform="matrix(1 0 0 -1 69 206)" fill="#FF0000"/>
<circle cx="24" cy="24" r="24" transform="matrix(1 0 0 -1 9 645)" fill="#FF0000"/>
<circle cx="24" cy="24" r="24" transform="matrix(1 0 0 -1 183 206)" fill="#FF0000"/>
<circle cx="24" cy="24" r="24" transform="matrix(1 0 0 -1 123 646)" fill="#FF0000"/>
<circle cx="24" cy="24" r="24" transform="matrix(1 0 0 -1 299 207)" fill="#FF0000"/>
<circle cx="24" cy="24" r="24" transform="matrix(1 0 0 -1 239 647)" fill="#FF0000"/>
<circle cx="21" cy="21" r="21" transform="matrix(1 0 0 -1 72 149)" fill="#FF0000"/>
<circle cx="21" cy="21" r="21" transform="matrix(1 0 0 -1 12 588)" fill="#FF0000"/>
<circle cx="21" cy="21" r="21" transform="matrix(1 0 0 -1 186 149)" fill="#FF0000"/>
<circle cx="21" cy="21" r="21" transform="matrix(1 0 0 -1 126 589)" fill="#FF0000"/>
<circle cx="21" cy="21" r="21" transform="matrix(1 0 0 -1 302 150)" fill="#FF0000"/>
<circle cx="21" cy="21" r="21" transform="matrix(1 0 0 -1 242 590)" fill="#FF0000"/>
<circle cx="14" cy="14" r="14" transform="matrix(1 0 0 -1 79 98)" fill="#FF0000"/>
<circle cx="14" cy="14" r="14" transform="matrix(1 0 0 -1 19 537)" fill="#FF0000"/>
<circle cx="14" cy="14" r="14" transform="matrix(1 0 0 -1 193 98)" fill="#FF0000"/>
<circle cx="14" cy="14" r="14" transform="matrix(1 0 0 -1 133 538)" fill="#FF0000"/>
<circle cx="14" cy="14" r="14" transform="matrix(1 0 0 -1 309 99)" fill="#FF0000"/>
<circle cx="14" cy="14" r="14" transform="matrix(1 0 0 -1 249 539)" fill="#FF0000"/>
<circle cx="8.5" cy="8.5" r="8.5" transform="matrix(1 0 0 -1 84 61)" fill="#FF0000"/>
<circle cx="8.5" cy="8.5" r="8.5" transform="matrix(1 0 0 -1 24 500)" fill="#FF0000"/>
<circle cx="8.5" cy="8.5" r="8.5" transform="matrix(1 0 0 -1 198 61)" fill="#FF0000"/>
<circle cx="8.5" cy="8.5" r="8.5" transform="matrix(1 0 0 -1 138 501)" fill="#FF0000"/>
<circle cx="8.5" cy="8.5" r="8.5" transform="matrix(1 0 0 -1 314 62)" fill="#FF0000"/>
<circle cx="8.5" cy="8.5" r="8.5" transform="matrix(1 0 0 -1 254 502)" fill="#FF0000"/>
<circle cx="12.5" cy="12.5" r="12.5" transform="matrix(1 0 0 -1 80 35)" fill="#FF0000"/>
<circle cx="12.5" cy="12.5" r="12.5" transform="matrix(1 0 0 -1 20 474)" fill="#FF0000"/>
<circle cx="12.5" cy="12.5" r="12.5" transform="matrix(1 0 0 -1 194 35)" fill="#FF0000"/>
<circle cx="12.5" cy="12.5" r="12.5" transform="matrix(1 0 0 -1 134 475)" fill="#FF0000"/>
<circle cx="12.5" cy="12.5" r="12.5" transform="matrix(1 0 0 -1 310 36)" fill="#FF0000"/>
<circle cx="12.5" cy="12.5" r="12.5" transform="matrix(1 0 0 -1 250 476)" fill="#FF0000"/>
<circle cx="319" cy="1741" r="21" transform="rotate(-180 319 1741)" fill="black"/>
<circle cx="200" cy="1741" r="21" transform="rotate(-180 200 1741)" fill="black"/>
<circle cx="260" cy="1301" r="21" transform="rotate(-180 260 1301)" fill="black"/>
<circle cx="29" cy="1301" r="21" transform="rotate(-180 29 1301)" fill="black"/>
<circle cx="87" cy="1740" r="21" transform="rotate(-180 87 1740)" fill="black"/>
<circle cx="147" cy="1300" r="21" transform="rotate(-180 147 1300)" fill="black"/>
<circle cx="319" cy="1681" r="30" transform="rotate(-180 319 1681)" fill="black"/>
<circle cx="200" cy="1681" r="30" transform="rotate(-180 200 1681)" fill="black"/>
<circle cx="260" cy="1241" r="30" transform="rotate(-180 260 1241)" fill="black"/>
<ellipse cx="30.5" cy="1241" rx="28.5" ry="30" transform="rotate(-180 30.5 1241)" fill="black"/>
<circle cx="87" cy="1680" r="30" transform="rotate(-180 87 1680)" fill="black"/>
<circle cx="147" cy="1240" r="30" transform="rotate(-180 147 1240)" fill="black"/>
<circle cx="319" cy="1627" r="15" transform="rotate(-180 319 1627)" fill="black"/>
<circle cx="200" cy="1627" r="15" transform="rotate(-180 200 1627)" fill="black"/>
<circle cx="260" cy="1187" r="15" transform="rotate(-180 260 1187)" fill="black"/>
<circle cx="29" cy="1187" r="15" transform="rotate(-180 29 1187)" fill="black"/>
<circle cx="87" cy="1626" r="15" transform="rotate(-180 87 1626)" fill="black"/>
<circle cx="147" cy="1186" r="15" transform="rotate(-180 147 1186)" fill="black"/>
<circle cx="319" cy="1585" r="18" transform="rotate(-180 319 1585)" fill="black"/>
<circle cx="200" cy="1585" r="18" transform="rotate(-180 200 1585)" fill="black"/>
<circle cx="260" cy="1145" r="18" transform="rotate(-180 260 1145)" fill="black"/>
<circle cx="29" cy="1145" r="18" transform="rotate(-180 29 1145)" fill="black"/>
<circle cx="87" cy="1584" r="18" transform="rotate(-180 87 1584)" fill="black"/>
<circle cx="147" cy="1144" r="18" transform="rotate(-180 147 1144)" fill="black"/>
<circle cx="319.5" cy="1547.5" r="10.5" transform="rotate(-180 319.5 1547.5)" fill="black"/>
<circle cx="200.5" cy="1547.5" r="10.5" transform="rotate(-180 200.5 1547.5)" fill="black"/>
<circle cx="260.5" cy="1107.5" r="10.5" transform="rotate(-180 260.5 1107.5)" fill="black"/>
<circle cx="29.5" cy="1107.5" r="10.5" transform="rotate(-180 29.5 1107.5)" fill="black"/>
<circle cx="87.5" cy="1546.5" r="10.5" transform="rotate(-180 87.5 1546.5)" fill="black"/>
<circle cx="147.5" cy="1106.5" r="10.5" transform="rotate(-180 147.5 1106.5)" fill="black"/>
<circle cx="319" cy="1504" r="24" transform="rotate(-180 319 1504)" fill="black"/>
<circle cx="200" cy="1504" r="24" transform="rotate(-180 200 1504)" fill="black"/>
<circle cx="260" cy="1064" r="24" transform="rotate(-180 260 1064)" fill="black"/>
<circle cx="29" cy="1064" r="24" transform="rotate(-180 29 1064)" fill="black"/>
<circle cx="87" cy="1503" r="24" transform="rotate(-180 87 1503)" fill="black"/>
<circle cx="147" cy="1063" r="24" transform="rotate(-180 147 1063)" fill="black"/>
<circle cx="319" cy="1450" r="21" transform="rotate(-180 319 1450)" fill="black"/>
<circle cx="200" cy="1450" r="21" transform="rotate(-180 200 1450)" fill="black"/>
<circle cx="260" cy="1010" r="21" transform="rotate(-180 260 1010)" fill="black"/>
<circle cx="29" cy="1010" r="21" transform="rotate(-180 29 1010)" fill="black"/>
<circle cx="87" cy="1449" r="21" transform="rotate(-180 87 1449)" fill="black"/>
<circle cx="147" cy="1009" r="21" transform="rotate(-180 147 1009)" fill="black"/>
<circle cx="319" cy="1406" r="14" transform="rotate(-180 319 1406)" fill="black"/>
<circle cx="200" cy="1406" r="14" transform="rotate(-180 200 1406)" fill="black"/>
<circle cx="260" cy="966" r="14" transform="rotate(-180 260 966)" fill="black"/>
<circle cx="29" cy="966" r="14" transform="rotate(-180 29 966)" fill="black"/>
<circle cx="87" cy="1405" r="14" transform="rotate(-180 87 1405)" fill="black"/>
<circle cx="147" cy="965" r="14" transform="rotate(-180 147 965)" fill="black"/>
<circle cx="319.5" cy="1374.5" r="8.5" transform="rotate(-180 319.5 1374.5)" fill="black"/>
<circle cx="200.5" cy="1374.5" r="8.5" transform="rotate(-180 200.5 1374.5)" fill="black"/>
<circle cx="260.5" cy="934.5" r="8.5" transform="rotate(-180 260.5 934.5)" fill="black"/>
<circle cx="29.5" cy="934.5" r="8.5" transform="rotate(-180 29.5 934.5)" fill="black"/>
<circle cx="87.5" cy="1373.5" r="8.5" transform="rotate(-180 87.5 1373.5)" fill="black"/>
<circle cx="147.5" cy="933.5" r="8.5" transform="rotate(-180 147.5 933.5)" fill="black"/>
<circle cx="319.5" cy="1344.5" r="12.5" transform="rotate(-180 319.5 1344.5)" fill="black"/>
<circle cx="200.5" cy="1344.5" r="12.5" transform="rotate(-180 200.5 1344.5)" fill="black"/>
<circle cx="260.5" cy="904.5" r="12.5" transform="rotate(-180 260.5 904.5)" fill="black"/>
<circle cx="29.5" cy="904.5" r="12.5" transform="rotate(-180 29.5 904.5)" fill="black"/>
<circle cx="87.5" cy="1343.5" r="12.5" transform="rotate(-180 87.5 1343.5)" fill="black"/>
<circle cx="147.5" cy="903.5" r="12.5" transform="rotate(-180 147.5 903.5)" fill="black"/>
<circle cx="21" cy="21" r="21" transform="matrix(-1 0 0 1 281 1332)" fill="black"/>
<circle cx="21" cy="21" r="21" transform="matrix(-1 0 0 1 341 893)" fill="black"/>
<circle cx="21" cy="21" r="21" transform="matrix(-1 0 0 1 167 1332)" fill="black"/>
<circle cx="21" cy="21" r="21" transform="matrix(-1 0 0 1 227 892)" fill="black"/>
<circle cx="21" cy="21" r="21" transform="matrix(-1 0 0 1 51 1331)" fill="black"/>
<circle cx="21" cy="21" r="21" transform="matrix(-1 0 0 1 111 891)" fill="black"/>
<circle cx="30" cy="30" r="30" transform="matrix(-1 0 0 1 290 1383)" fill="black"/>
<circle cx="30" cy="30" r="30" transform="matrix(-1 0 0 1 350 944)" fill="black"/>
<circle cx="30" cy="30" r="30" transform="matrix(-1 0 0 1 176 1383)" fill="black"/>
<circle cx="30" cy="30" r="30" transform="matrix(-1 0 0 1 236 943)" fill="black"/>
<ellipse cx="29" cy="30" rx="29" ry="30" transform="matrix(-1 0 0 1 60 1382)" fill="black"/>
<circle cx="30" cy="30" r="30" transform="matrix(-1 0 0 1 120 942)" fill="black"/>
<circle cx="15" cy="15" r="15" transform="matrix(-1 0 0 1 275 1452)" fill="black"/>
<circle cx="15" cy="15" r="15" transform="matrix(-1 0 0 1 335 1013)" fill="black"/>
<circle cx="15" cy="15" r="15" transform="matrix(-1 0 0 1 161 1452)" fill="black"/>
<circle cx="15" cy="15" r="15" transform="matrix(-1 0 0 1 221 1012)" fill="black"/>
<circle cx="15" cy="15" r="15" transform="matrix(-1 0 0 1 45 1451)" fill="black"/>
<circle cx="15" cy="15" r="15" transform="matrix(-1 0 0 1 105 1011)" fill="black"/>
<circle cx="18" cy="18" r="18" transform="matrix(-1 0 0 1 278 1491)" fill="black"/>
<circle cx="18" cy="18" r="18" transform="matrix(-1 0 0 1 338 1052)" fill="black"/>
<circle cx="18" cy="18" r="18" transform="matrix(-1 0 0 1 164 1491)" fill="black"/>
<circle cx="18" cy="18" r="18" transform="matrix(-1 0 0 1 224 1051)" fill="black"/>
<circle cx="18" cy="18" r="18" transform="matrix(-1 0 0 1 48 1490)" fill="black"/>
<circle cx="18" cy="18" r="18" transform="matrix(-1 0 0 1 108 1050)" fill="black"/>
<circle cx="10.5" cy="10.5" r="10.5" transform="matrix(-1 0 0 1 271 1536)" fill="black"/>
<circle cx="10.5" cy="10.5" r="10.5" transform="matrix(-1 0 0 1 157 1536)" fill="black"/>
<circle cx="10.5" cy="10.5" r="10.5" transform="matrix(-1 0 0 1 217 1096)" fill="black"/>
<circle cx="10.5" cy="10.5" r="10.5" transform="matrix(-1 0 0 1 41 1535)" fill="black"/>
<circle cx="10.5" cy="10.5" r="10.5" transform="matrix(-1 0 0 1 101 1095)" fill="black"/>
<circle cx="24" cy="24" r="24" transform="matrix(-1 0 0 1 284 1566)" fill="black"/>
<circle cx="24" cy="24" r="24" transform="matrix(-1 0 0 1 344 1127)" fill="black"/>
<circle cx="24" cy="24" r="24" transform="matrix(-1 0 0 1 170 1566)" fill="black"/>
<circle cx="24" cy="24" r="24" transform="matrix(-1 0 0 1 230 1126)" fill="black"/>
<circle cx="24" cy="24" r="24" transform="matrix(-1 0 0 1 54 1565)" fill="black"/>
<circle cx="24" cy="24" r="24" transform="matrix(-1 0 0 1 114 1125)" fill="black"/>
<circle cx="21" cy="21" r="21" transform="matrix(-1 0 0 1 281 1623)" fill="black"/>
<circle cx="21" cy="21" r="21" transform="matrix(-1 0 0 1 341 1184)" fill="black"/>
<circle cx="21" cy="21" r="21" transform="matrix(-1 0 0 1 167 1623)" fill="black"/>
<circle cx="21" cy="21" r="21" transform="matrix(-1 0 0 1 227 1183)" fill="black"/>
<circle cx="21" cy="21" r="21" transform="matrix(-1 0 0 1 51 1622)" fill="black"/>
<circle cx="21" cy="21" r="21" transform="matrix(-1 0 0 1 111 1182)" fill="black"/>
<circle cx="14" cy="14" r="14" transform="matrix(-1 0 0 1 274 1674)" fill="black"/>
<circle cx="14" cy="14" r="14" transform="matrix(-1 0 0 1 334 1235)" fill="black"/>
<circle cx="14" cy="14" r="14" transform="matrix(-1 0 0 1 160 1674)" fill="black"/>
<circle cx="14" cy="14" r="14" transform="matrix(-1 0 0 1 220 1234)" fill="black"/>
<circle cx="14" cy="14" r="14" transform="matrix(-1 0 0 1 44 1673)" fill="black"/>
<circle cx="14" cy="14" r="14" transform="matrix(-1 0 0 1 104 1233)" fill="black"/>
<circle cx="8.5" cy="8.5" r="8.5" transform="matrix(-1 0 0 1 269 1711)" fill="black"/>
<circle cx="8.5" cy="8.5" r="8.5" transform="matrix(-1 0 0 1 329 1272)" fill="black"/>
<circle cx="8.5" cy="8.5" r="8.5" transform="matrix(-1 0 0 1 155 1711)" fill="black"/>
<circle cx="8.5" cy="8.5" r="8.5" transform="matrix(-1 0 0 1 215 1271)" fill="black"/>
<circle cx="8.5" cy="8.5" r="8.5" transform="matrix(-1 0 0 1 39 1710)" fill="black"/>
<circle cx="8.5" cy="8.5" r="8.5" transform="matrix(-1 0 0 1 99 1270)" fill="black"/>
<circle cx="12.5" cy="12.5" r="12.5" transform="matrix(-1 0 0 1 273 1737)" fill="black"/>
<circle cx="12.5" cy="12.5" r="12.5" transform="matrix(-1 0 0 1 333 1298)" fill="black"/>
<circle cx="12.5" cy="12.5" r="12.5" transform="matrix(-1 0 0 1 159 1737)" fill="black"/>
<circle cx="12.5" cy="12.5" r="12.5" transform="matrix(-1 0 0 1 219 1297)" fill="black"/>
<circle cx="12.5" cy="12.5" r="12.5" transform="matrix(-1 0 0 1 43 1736)" fill="black"/>
<circle cx="12.5" cy="12.5" r="12.5" transform="matrix(-1 0 0 1 103 1296)" fill="black"/>
<circle cx="326" cy="1747" r="21" transform="rotate(-180 326 1747)" fill="#FF0000"/>
<circle cx="207" cy="1747" r="21" transform="rotate(-180 207 1747)" fill="#FF0000"/>
<circle cx="267" cy="1307" r="21" transform="rotate(-180 267 1307)" fill="#FF0000"/>
<circle cx="36" cy="1307" r="21" transform="rotate(-180 36 1307)" fill="#FF0000"/>
<circle cx="94" cy="1746" r="21" transform="rotate(-180 94 1746)" fill="#FF0000"/>
<circle cx="154" cy="1306" r="21" transform="rotate(-180 154 1306)" fill="#FF0000"/>
<circle cx="326" cy="1687" r="30" transform="rotate(-180 326 1687)" fill="#FF0000"/>
<circle cx="207" cy="1687" r="30" transform="rotate(-180 207 1687)" fill="#FF0000"/>
<circle cx="267" cy="1247" r="30" transform="rotate(-180 267 1247)" fill="#FF0000"/>
<circle cx="36" cy="1247" r="30" transform="rotate(-180 36 1247)" fill="#FF0000"/>
<circle cx="94" cy="1686" r="30" transform="rotate(-180 94 1686)" fill="#FF0000"/>
<circle cx="154" cy="1246" r="30" transform="rotate(-180 154 1246)" fill="#FF0000"/>
<circle cx="326" cy="1633" r="15" transform="rotate(-180 326 1633)" fill="#FF0000"/>
<circle cx="207" cy="1633" r="15" transform="rotate(-180 207 1633)" fill="#FF0000"/>
<circle cx="267" cy="1193" r="15" transform="rotate(-180 267 1193)" fill="#FF0000"/>
<circle cx="36" cy="1193" r="15" transform="rotate(-180 36 1193)" fill="#FF0000"/>
<circle cx="94" cy="1632" r="15" transform="rotate(-180 94 1632)" fill="#FF0000"/>
<circle cx="154" cy="1192" r="15" transform="rotate(-180 154 1192)" fill="#FF0000"/>
<circle cx="326" cy="1591" r="18" transform="rotate(-180 326 1591)" fill="#FF0000"/>
<circle cx="207" cy="1591" r="18" transform="rotate(-180 207 1591)" fill="#FF0000"/>
<circle cx="267" cy="1151" r="18" transform="rotate(-180 267 1151)" fill="#FF0000"/>
<circle cx="36" cy="1151" r="18" transform="rotate(-180 36 1151)" fill="#FF0000"/>
<circle cx="94" cy="1590" r="18" transform="rotate(-180 94 1590)" fill="#FF0000"/>
<circle cx="154" cy="1150" r="18" transform="rotate(-180 154 1150)" fill="#FF0000"/>
<circle cx="326.5" cy="1553.5" r="10.5" transform="rotate(-180 326.5 1553.5)" fill="#FF0000"/>
<circle cx="207.5" cy="1553.5" r="10.5" transform="rotate(-180 207.5 1553.5)" fill="#FF0000"/>
<circle cx="267.5" cy="1113.5" r="10.5" transform="rotate(-180 267.5 1113.5)" fill="#FF0000"/>
<circle cx="36.5" cy="1113.5" r="10.5" transform="rotate(-180 36.5 1113.5)" fill="#FF0000"/>
<circle cx="94.5" cy="1552.5" r="10.5" transform="rotate(-180 94.5 1552.5)" fill="#FF0000"/>
<circle cx="154.5" cy="1112.5" r="10.5" transform="rotate(-180 154.5 1112.5)" fill="#FF0000"/>
<circle cx="326" cy="1510" r="24" transform="rotate(-180 326 1510)" fill="#FF0000"/>
<circle cx="207" cy="1510" r="24" transform="rotate(-180 207 1510)" fill="#FF0000"/>
<circle cx="267" cy="1070" r="24" transform="rotate(-180 267 1070)" fill="#FF0000"/>
<circle cx="36" cy="1070" r="24" transform="rotate(-180 36 1070)" fill="#FF0000"/>
<circle cx="94" cy="1509" r="24" transform="rotate(-180 94 1509)" fill="#FF0000"/>
<circle cx="154" cy="1069" r="24" transform="rotate(-180 154 1069)" fill="#FF0000"/>
<circle cx="326" cy="1456" r="21" transform="rotate(-180 326 1456)" fill="#FF0000"/>
<circle cx="207" cy="1456" r="21" transform="rotate(-180 207 1456)" fill="#FF0000"/>
<circle cx="267" cy="1016" r="21" transform="rotate(-180 267 1016)" fill="#FF0000"/>
<circle cx="36" cy="1016" r="21" transform="rotate(-180 36 1016)" fill="#FF0000"/>
<circle cx="94" cy="1455" r="21" transform="rotate(-180 94 1455)" fill="#FF0000"/>
<circle cx="154" cy="1015" r="21" transform="rotate(-180 154 1015)" fill="#FF0000"/>
<circle cx="326" cy="1412" r="14" transform="rotate(-180 326 1412)" fill="#FF0000"/>
<circle cx="207" cy="1412" r="14" transform="rotate(-180 207 1412)" fill="#FF0000"/>
<circle cx="267" cy="972" r="14" transform="rotate(-180 267 972)" fill="#FF0000"/>
<circle cx="36" cy="972" r="14" transform="rotate(-180 36 972)" fill="#FF0000"/>
<circle cx="94" cy="1411" r="14" transform="rotate(-180 94 1411)" fill="#FF0000"/>
<circle cx="154" cy="971" r="14" transform="rotate(-180 154 971)" fill="#FF0000"/>
<circle cx="326.5" cy="1380.5" r="8.5" transform="rotate(-180 326.5 1380.5)" fill="#FF0000"/>
<circle cx="207.5" cy="1380.5" r="8.5" transform="rotate(-180 207.5 1380.5)" fill="#FF0000"/>
<circle cx="267.5" cy="940.5" r="8.5" transform="rotate(-180 267.5 940.5)" fill="#FF0000"/>
<circle cx="36.5" cy="940.5" r="8.5" transform="rotate(-180 36.5 940.5)" fill="#FF0000"/>
<circle cx="94.5" cy="1379.5" r="8.5" transform="rotate(-180 94.5 1379.5)" fill="#FF0000"/>
<circle cx="154.5" cy="939.5" r="8.5" transform="rotate(-180 154.5 939.5)" fill="#FF0000"/>
<circle cx="326.5" cy="1350.5" r="12.5" transform="rotate(-180 326.5 1350.5)" fill="#FF0000"/>
<circle cx="207.5" cy="1350.5" r="12.5" transform="rotate(-180 207.5 1350.5)" fill="#FF0000"/>
<circle cx="267.5" cy="910.5" r="12.5" transform="rotate(-180 267.5 910.5)" fill="#FF0000"/>
<circle cx="36.5" cy="910.5" r="12.5" transform="rotate(-180 36.5 910.5)" fill="#FF0000"/>
<circle cx="94.5" cy="1349.5" r="12.5" transform="rotate(-180 94.5 1349.5)" fill="#FF0000"/>
<circle cx="154.5" cy="909.5" r="12.5" transform="rotate(-180 154.5 909.5)" fill="#FF0000"/>
<circle cx="21" cy="21" r="21" transform="matrix(-1 0 0 1 288 1338)" fill="#FF0000"/>
<circle cx="21" cy="21" r="21" transform="matrix(-1 0 0 1 348 899)" fill="#FF0000"/>
<circle cx="21" cy="21" r="21" transform="matrix(-1 0 0 1 174 1338)" fill="#FF0000"/>
<circle cx="21" cy="21" r="21" transform="matrix(-1 0 0 1 234 898)" fill="#FF0000"/>
<circle cx="21" cy="21" r="21" transform="matrix(-1 0 0 1 58 1337)" fill="#FF0000"/>
<circle cx="21" cy="21" r="21" transform="matrix(-1 0 0 1 118 897)" fill="#FF0000"/>
<circle cx="30" cy="30" r="30" transform="matrix(-1 0 0 1 297 1389)" fill="#FF0000"/>
<circle cx="30" cy="30" r="30" transform="matrix(-1 0 0 1 357 950)" fill="#FF0000"/>
<circle cx="30" cy="30" r="30" transform="matrix(-1 0 0 1 183 1389)" fill="#FF0000"/>
<circle cx="30" cy="30" r="30" transform="matrix(-1 0 0 1 243 949)" fill="#FF0000"/>
<circle cx="30" cy="30" r="30" transform="matrix(-1 0 0 1 67 1388)" fill="#FF0000"/>
<circle cx="30" cy="30" r="30" transform="matrix(-1 0 0 1 127 948)" fill="#FF0000"/>
<circle cx="15" cy="15" r="15" transform="matrix(-1 0 0 1 282 1458)" fill="#FF0000"/>
<circle cx="15" cy="15" r="15" transform="matrix(-1 0 0 1 342 1019)" fill="#FF0000"/>
<circle cx="15" cy="15" r="15" transform="matrix(-1 0 0 1 168 1458)" fill="#FF0000"/>
<circle cx="15" cy="15" r="15" transform="matrix(-1 0 0 1 228 1018)" fill="#FF0000"/>
<circle cx="15" cy="15" r="15" transform="matrix(-1 0 0 1 52 1457)" fill="#FF0000"/>
<circle cx="15" cy="15" r="15" transform="matrix(-1 0 0 1 112 1017)" fill="#FF0000"/>
<circle cx="18" cy="18" r="18" transform="matrix(-1 0 0 1 285 1497)" fill="#FF0000"/>
<circle cx="18" cy="18" r="18" transform="matrix(-1 0 0 1 345 1058)" fill="#FF0000"/>
<circle cx="18" cy="18" r="18" transform="matrix(-1 0 0 1 171 1497)" fill="#FF0000"/>
<circle cx="18" cy="18" r="18" transform="matrix(-1 0 0 1 231 1057)" fill="#FF0000"/>
<circle cx="18" cy="18" r="18" transform="matrix(-1 0 0 1 55 1496)" fill="#FF0000"/>
<circle cx="18" cy="18" r="18" transform="matrix(-1 0 0 1 115 1056)" fill="#FF0000"/>
<circle cx="10.5" cy="10.5" r="10.5" transform="matrix(-1 0 0 1 278 1542)" fill="#FF0000"/>
<circle cx="10.5" cy="10.5" r="10.5" transform="matrix(-1 0 0 1 338 1103)" fill="#FF0000"/>
<circle cx="10.5" cy="10.5" r="10.5" transform="matrix(-1 0 0 1 164 1542)" fill="#FF0000"/>
<circle cx="10.5" cy="10.5" r="10.5" transform="matrix(-1 0 0 1 224 1102)" fill="#FF0000"/>
<circle cx="10.5" cy="10.5" r="10.5" transform="matrix(-1 0 0 1 48 1541)" fill="#FF0000"/>
<circle cx="10.5" cy="10.5" r="10.5" transform="matrix(-1 0 0 1 108 1101)" fill="#FF0000"/>
<circle cx="24" cy="24" r="24" transform="matrix(-1 0 0 1 291 1572)" fill="#FF0000"/>
<circle cx="24" cy="24" r="24" transform="matrix(-1 0 0 1 351 1133)" fill="#FF0000"/>
<circle cx="24" cy="24" r="24" transform="matrix(-1 0 0 1 177 1572)" fill="#FF0000"/>
<circle cx="24" cy="24" r="24" transform="matrix(-1 0 0 1 237 1132)" fill="#FF0000"/>
<circle cx="24" cy="24" r="24" transform="matrix(-1 0 0 1 61 1571)" fill="#FF0000"/>
<circle cx="24" cy="24" r="24" transform="matrix(-1 0 0 1 121 1131)" fill="#FF0000"/>
<circle cx="21" cy="21" r="21" transform="matrix(-1 0 0 1 288 1629)" fill="#FF0000"/>
<circle cx="21" cy="21" r="21" transform="matrix(-1 0 0 1 348 1190)" fill="#FF0000"/>
<circle cx="21" cy="21" r="21" transform="matrix(-1 0 0 1 174 1629)" fill="#FF0000"/>
<circle cx="21" cy="21" r="21" transform="matrix(-1 0 0 1 234 1189)" fill="#FF0000"/>
<circle cx="21" cy="21" r="21" transform="matrix(-1 0 0 1 58 1628)" fill="#FF0000"/>
<circle cx="21" cy="21" r="21" transform="matrix(-1 0 0 1 118 1188)" fill="#FF0000"/>
<circle cx="14" cy="14" r="14" transform="matrix(-1 0 0 1 281 1680)" fill="#FF0000"/>
<circle cx="14" cy="14" r="14" transform="matrix(-1 0 0 1 341 1241)" fill="#FF0000"/>
<circle cx="14" cy="14" r="14" transform="matrix(-1 0 0 1 167 1680)" fill="#FF0000"/>
<circle cx="14" cy="14" r="14" transform="matrix(-1 0 0 1 227 1240)" fill="#FF0000"/>
<circle cx="14" cy="14" r="14" transform="matrix(-1 0 0 1 51 1679)" fill="#FF0000"/>
<circle cx="14" cy="14" r="14" transform="matrix(-1 0 0 1 111 1239)" fill="#FF0000"/>
<circle cx="8.5" cy="8.5" r="8.5" transform="matrix(-1 0 0 1 276 1717)" fill="#FF0000"/>
<circle cx="8.5" cy="8.5" r="8.5" transform="matrix(-1 0 0 1 336 1278)" fill="#FF0000"/>
<circle cx="8.5" cy="8.5" r="8.5" transform="matrix(-1 0 0 1 162 1717)" fill="#FF0000"/>
<circle cx="8.5" cy="8.5" r="8.5" transform="matrix(-1 0 0 1 222 1277)" fill="#FF0000"/>
<circle cx="8.5" cy="8.5" r="8.5" transform="matrix(-1 0 0 1 46 1716)" fill="#FF0000"/>
<circle cx="8.5" cy="8.5" r="8.5" transform="matrix(-1 0 0 1 106 1276)" fill="#FF0000"/>
<circle cx="12.5" cy="12.5" r="12.5" transform="matrix(-1 0 0 1 280 1743)" fill="#FF0000"/>
<circle cx="12.5" cy="12.5" r="12.5" transform="matrix(-1 0 0 1 340 1304)" fill="#FF0000"/>
<circle cx="12.5" cy="12.5" r="12.5" transform="matrix(-1 0 0 1 166 1743)" fill="#FF0000"/>
<circle cx="12.5" cy="12.5" r="12.5" transform="matrix(-1 0 0 1 226 1303)" fill="#FF0000"/>
<circle cx="12.5" cy="12.5" r="12.5" transform="matrix(-1 0 0 1 50 1742)" fill="#FF0000"/>
<circle cx="12.5" cy="12.5" r="12.5" transform="matrix(-1 0 0 1 110 1302)" fill="#FF0000"/>
</svg>
