<svg width="608" height="311" viewBox="0 0 608 311" fill="none" xmlns="http://www.w3.org/2000/svg">
<ellipse cx="303.792" cy="155.5" rx="303.792" ry="155.5" fill="#FF0000"/>
<ellipse cx="303.792" cy="155.5" rx="303.792" ry="155.5" fill="url(#paint0_radial_429_49773)" fill-opacity="0.9"/>
<path d="M27.4834 158.563C122.799 107.942 334.846 52.0123 577.754 159.994C472.448 200.897 251.456 244.865 27.4834 158.563Z" fill="#FF0000"/>
<path d="M27.4834 158.563C122.799 107.942 334.846 52.0123 577.754 159.994C472.448 200.897 251.456 244.865 27.4834 158.563Z" fill="url(#paint1_radial_429_49773)" fill-opacity="0.9"/>
<path d="M27.4834 158.563C122.799 107.942 334.846 52.0123 577.754 159.994C472.448 200.897 251.456 244.865 27.4834 158.563Z" stroke="black" stroke-width="24"/>
<path d="M294.285 107.5C323.816 107.5 349.932 113.653 368.206 123.007C387.147 132.702 394.38 143.849 394.38 152.633C394.38 161.416 387.147 172.564 368.206 182.259C349.932 191.612 323.816 197.766 294.285 197.766C264.755 197.766 238.639 191.612 220.365 182.259C201.425 172.564 194.191 161.416 194.191 152.633C194.191 143.849 201.425 132.702 220.365 123.007C238.639 113.653 264.755 107.5 294.285 107.5Z" fill="#FF0000"/>
<path d="M294.285 107.5C323.816 107.5 349.932 113.653 368.206 123.007C387.147 132.702 394.38 143.849 394.38 152.633C394.38 161.416 387.147 172.564 368.206 182.259C349.932 191.612 323.816 197.766 294.285 197.766C264.755 197.766 238.639 191.612 220.365 182.259C201.425 172.564 194.191 161.416 194.191 152.633C194.191 143.849 201.425 132.702 220.365 123.007C238.639 113.653 264.755 107.5 294.285 107.5Z" fill="url(#paint2_radial_429_49773)" fill-opacity="0.9"/>
<path d="M294.285 107.5C323.816 107.5 349.932 113.653 368.206 123.007C387.147 132.702 394.38 143.849 394.38 152.633C394.38 161.416 387.147 172.564 368.206 182.259C349.932 191.612 323.816 197.766 294.285 197.766C264.755 197.766 238.639 191.612 220.365 182.259C201.425 172.564 194.191 161.416 194.191 152.633C194.191 143.849 201.425 132.702 220.365 123.007C238.639 113.653 264.755 107.5 294.285 107.5Z" stroke="black" stroke-width="25"/>
<path d="M314.823 110.398C334.381 110.398 351.468 114.483 363.206 120.491C375.611 126.841 378.802 133.366 378.802 137.045C378.802 140.724 375.611 147.25 363.206 153.6C351.468 159.608 334.381 163.692 314.823 163.692C295.265 163.692 278.178 159.608 266.439 153.6C254.035 147.25 250.844 140.724 250.844 137.045C250.844 133.366 254.035 126.841 266.439 120.491C278.178 114.483 295.265 110.398 314.823 110.398Z" fill="#FF0000"/>
<path d="M314.823 110.398C334.381 110.398 351.468 114.483 363.206 120.491C375.611 126.841 378.802 133.366 378.802 137.045C378.802 140.724 375.611 147.25 363.206 153.6C351.468 159.608 334.381 163.692 314.823 163.692C295.265 163.692 278.178 159.608 266.439 153.6C254.035 147.25 250.844 140.724 250.844 137.045C250.844 133.366 254.035 126.841 266.439 120.491C278.178 114.483 295.265 110.398 314.823 110.398Z" fill="url(#paint3_radial_429_49773)" fill-opacity="0.9"/>
<path d="M314.823 110.398C334.381 110.398 351.468 114.483 363.206 120.491C375.611 126.841 378.802 133.366 378.802 137.045C378.802 140.724 375.611 147.25 363.206 153.6C351.468 159.608 334.381 163.692 314.823 163.692C295.265 163.692 278.178 159.608 266.439 153.6C254.035 147.25 250.844 140.724 250.844 137.045C250.844 133.366 254.035 126.841 266.439 120.491C278.178 114.483 295.265 110.398 314.823 110.398Z" stroke="black" stroke-width="25"/>
<defs>
<radialGradient id="paint0_radial_429_49773" cx="0" cy="0" r="1" gradientUnits="userSpaceOnUse" gradientTransform="translate(303.792 155.5) rotate(90) scale(155.5 303.792)">
<stop stop-opacity="0"/>
<stop offset="1"/>
</radialGradient>
<radialGradient id="paint1_radial_429_49773" cx="0" cy="0" r="1" gradientUnits="userSpaceOnUse" gradientTransform="translate(304.5 153.323) rotate(90) scale(67.0571 304.5)">
<stop stop-opacity="0"/>
<stop offset="1"/>
</radialGradient>
<radialGradient id="paint2_radial_429_49773" cx="0" cy="0" r="1" gradientUnits="userSpaceOnUse" gradientTransform="translate(294.286 152.633) rotate(90) scale(57.6329 112.594)">
<stop stop-opacity="0"/>
<stop offset="1"/>
</radialGradient>
<radialGradient id="paint3_radial_429_49773" cx="0" cy="0" r="1" gradientUnits="userSpaceOnUse" gradientTransform="translate(314.823 137.045) rotate(90) scale(39.1469 76.4791)">
<stop stop-opacity="0"/>
<stop offset="1"/>
</radialGradient>
</defs>
</svg>
