<svg width="608" height="311" viewBox="0 0 608 311" fill="none" xmlns="http://www.w3.org/2000/svg">
<ellipse cx="303.792" cy="155.5" rx="303.792" ry="155.5" transform="matrix(-1 0 0 1 607.584 0)" fill="#FF0000"/>
<ellipse cx="303.792" cy="155.5" rx="303.792" ry="155.5" transform="matrix(-1 0 0 1 607.584 0)" fill="url(#paint0_radial_429_49773)" fill-opacity="0.9"/>
<path d="M580.101 158.563C484.785 107.942 272.738 52.0123 29.8301 159.994C135.136 200.897 356.128 244.865 580.101 158.563Z" fill="#FF0000"/>
<path d="M580.101 158.563C484.785 107.942 272.738 52.0123 29.8301 159.994C135.136 200.897 356.128 244.865 580.101 158.563Z" fill="url(#paint1_radial_429_49773)" fill-opacity="0.9"/>
<path d="M580.101 158.563C484.785 107.942 272.738 52.0123 29.8301 159.994C135.136 200.897 356.128 244.865 580.101 158.563Z" stroke="black" stroke-width="24"/>
<path d="M313.299 107.5C283.768 107.5 257.652 113.653 239.378 123.007C220.437 132.702 213.204 143.849 213.204 152.633C213.204 161.416 220.437 172.564 239.378 182.259C257.652 191.612 283.768 197.766 313.299 197.766C342.829 197.766 368.945 191.612 387.219 182.259C406.159 172.564 413.393 161.416 413.393 152.633C413.393 143.849 406.159 132.702 387.219 123.007C368.945 113.653 342.829 107.5 313.299 107.5Z" fill="#FF0000"/>
<path d="M313.299 107.5C283.768 107.5 257.652 113.653 239.378 123.007C220.437 132.702 213.204 143.849 213.204 152.633C213.204 161.416 220.437 172.564 239.378 182.259C257.652 191.612 283.768 197.766 313.299 197.766C342.829 197.766 368.945 191.612 387.219 182.259C406.159 172.564 413.393 161.416 413.393 152.633C413.393 143.849 406.159 132.702 387.219 123.007C368.945 113.653 342.829 107.5 313.299 107.5Z" fill="url(#paint2_radial_429_49773)" fill-opacity="0.9"/>
<path d="M313.299 107.5C283.768 107.5 257.652 113.653 239.378 123.007C220.437 132.702 213.204 143.849 213.204 152.633C213.204 161.416 220.437 172.564 239.378 182.259C257.652 191.612 283.768 197.766 313.299 197.766C342.829 197.766 368.945 191.612 387.219 182.259C406.159 172.564 413.393 161.416 413.393 152.633C413.393 143.849 406.159 132.702 387.219 123.007C368.945 113.653 342.829 107.5 313.299 107.5Z" stroke="black" stroke-width="25"/>
<path d="M292.761 110.398C273.203 110.398 256.116 114.483 244.378 120.491C231.973 126.841 228.782 133.366 228.782 137.045C228.782 140.724 231.973 147.25 244.378 153.6C256.116 159.608 273.203 163.692 292.761 163.692C312.319 163.692 329.406 159.608 341.145 153.6C353.549 147.25 356.74 140.724 356.74 137.045C356.74 133.366 353.549 126.841 341.145 120.491C329.406 114.483 312.319 110.398 292.761 110.398Z" fill="#FF0000"/>
<path d="M292.761 110.398C273.203 110.398 256.116 114.483 244.378 120.491C231.973 126.841 228.782 133.366 228.782 137.045C228.782 140.724 231.973 147.25 244.378 153.6C256.116 159.608 273.203 163.692 292.761 163.692C312.319 163.692 329.406 159.608 341.145 153.6C353.549 147.25 356.74 140.724 356.74 137.045C356.74 133.366 353.549 126.841 341.145 120.491C329.406 114.483 312.319 110.398 292.761 110.398Z" fill="url(#paint3_radial_429_49773)" fill-opacity="0.9"/>
<path d="M292.761 110.398C273.203 110.398 256.116 114.483 244.378 120.491C231.973 126.841 228.782 133.366 228.782 137.045C228.782 140.724 231.973 147.25 244.378 153.6C256.116 159.608 273.203 163.692 292.761 163.692C312.319 163.692 329.406 159.608 341.145 153.6C353.549 147.25 356.74 140.724 356.74 137.045C356.74 133.366 353.549 126.841 341.145 120.491C329.406 114.483 312.319 110.398 292.761 110.398Z" stroke="black" stroke-width="25"/>
<defs>
<radialGradient id="paint0_radial_429_49773" cx="0" cy="0" r="1" gradientUnits="userSpaceOnUse" gradientTransform="translate(303.792 155.5) rotate(90) scale(155.5 303.792)">
<stop stop-opacity="0"/>
<stop offset="1"/>
</radialGradient>
<radialGradient id="paint1_radial_429_49773" cx="0" cy="0" r="1" gradientUnits="userSpaceOnUse" gradientTransform="translate(303.084 153.323) rotate(90) scale(67.0571 304.5)">
<stop stop-opacity="0"/>
<stop offset="1"/>
</radialGradient>
<radialGradient id="paint2_radial_429_49773" cx="0" cy="0" r="1" gradientUnits="userSpaceOnUse" gradientTransform="translate(313.298 152.633) rotate(90) scale(57.6329 112.594)">
<stop stop-opacity="0"/>
<stop offset="1"/>
</radialGradient>
<radialGradient id="paint3_radial_429_49773" cx="0" cy="0" r="1" gradientUnits="userSpaceOnUse" gradientTransform="translate(292.761 137.045) rotate(90) scale(39.1469 76.4791)">
<stop stop-opacity="0"/>
<stop offset="1"/>
</radialGradient>
</defs>
</svg>
