<svg width="541" height="277" viewBox="0 0 541 277" fill="none" xmlns="http://www.w3.org/2000/svg">
<ellipse cx="270.037" cy="138.222" rx="270.037" ry="138.222" fill="#FF0000"/>
<ellipse cx="270.037" cy="138.222" rx="270.037" ry="138.222" fill="url(#paint0_radial_1_18874)" fill-opacity="0.9"/>
<path d="M24.4302 140.946C109.155 95.949 297.642 46.2328 513.561 142.217C419.956 178.575 223.517 217.659 24.4302 140.946Z" fill="#FF0000"/>
<path d="M24.4302 140.946C109.155 95.949 297.642 46.2328 513.561 142.217C419.956 178.575 223.517 217.659 24.4302 140.946Z" fill="url(#paint1_radial_1_18874)" fill-opacity="0.9"/>
<path d="M24.4302 140.946C109.155 95.949 297.642 46.2328 513.561 142.217C419.956 178.575 223.517 217.659 24.4302 140.946Z" stroke="black" stroke-width="21.3333"/>
<path d="M261.587 95.5558C287.837 95.5558 311.051 101.026 327.294 109.34C344.13 117.958 350.56 127.867 350.56 135.674C350.56 143.481 344.13 153.39 327.294 162.008C311.051 170.322 287.837 175.792 261.587 175.792C235.338 175.792 212.124 170.322 195.88 162.008C179.045 153.39 172.615 143.481 172.615 135.674C172.615 127.866 179.044 117.958 195.88 109.34C212.124 101.026 235.338 95.5558 261.587 95.5558Z" fill="#FF0000"/>
<path d="M261.587 95.5558C287.837 95.5558 311.051 101.026 327.294 109.34C344.13 117.958 350.56 127.867 350.56 135.674C350.56 143.481 344.13 153.39 327.294 162.008C311.051 170.322 287.837 175.792 261.587 175.792C235.338 175.792 212.124 170.322 195.88 162.008C179.045 153.39 172.615 143.481 172.615 135.674C172.615 127.866 179.044 117.958 195.88 109.34C212.124 101.026 235.338 95.5558 261.587 95.5558Z" fill="url(#paint2_radial_1_18874)" fill-opacity="0.9"/>
<path d="M261.587 95.5558C287.837 95.5558 311.051 101.026 327.294 109.34C344.13 117.958 350.56 127.867 350.56 135.674C350.56 143.481 344.13 153.39 327.294 162.008C311.051 170.322 287.837 175.792 261.587 175.792C235.338 175.792 212.124 170.322 195.88 162.008C179.045 153.39 172.615 143.481 172.615 135.674C172.615 127.866 179.044 117.958 195.88 109.34C212.124 101.026 235.338 95.5558 261.587 95.5558Z" stroke="black" stroke-width="22.2222"/>
<path d="M279.843 98.1322C297.227 98.1322 312.416 101.763 322.85 107.104C333.876 112.748 336.712 118.548 336.713 121.818C336.713 125.088 333.877 130.889 322.85 136.533C312.416 141.873 297.227 145.504 279.843 145.504C262.458 145.504 247.269 141.873 236.835 136.533C225.808 130.889 222.972 125.088 222.972 121.818C222.973 118.548 225.809 112.748 236.835 107.104C247.269 101.763 262.458 98.1322 279.843 98.1322Z" fill="#FF0000"/>
<path d="M279.843 98.1322C297.227 98.1322 312.416 101.763 322.85 107.104C333.876 112.748 336.712 118.548 336.713 121.818C336.713 125.088 333.877 130.889 322.85 136.533C312.416 141.873 297.227 145.504 279.843 145.504C262.458 145.504 247.269 141.873 236.835 136.533C225.808 130.889 222.972 125.088 222.972 121.818C222.973 118.548 225.809 112.748 236.835 107.104C247.269 101.763 262.458 98.1322 279.843 98.1322Z" fill="url(#paint3_radial_1_18874)" fill-opacity="0.9"/>
<path d="M279.843 98.1322C297.227 98.1322 312.416 101.763 322.85 107.104C333.876 112.748 336.712 118.548 336.713 121.818C336.713 125.088 333.877 130.889 322.85 136.533C312.416 141.873 297.227 145.504 279.843 145.504C262.458 145.504 247.269 141.873 236.835 136.533C225.808 130.889 222.972 125.088 222.972 121.818C222.973 118.548 225.809 112.748 236.835 107.104C247.269 101.763 262.458 98.1322 279.843 98.1322Z" stroke="black" stroke-width="22.2222"/>
<defs>
<radialGradient id="paint0_radial_1_18874" cx="0" cy="0" r="1" gradientUnits="userSpaceOnUse" gradientTransform="translate(270.037 138.222) rotate(90) scale(138.222 270.037)">
<stop stop-opacity="0"/>
<stop offset="1"/>
</radialGradient>
<radialGradient id="paint1_radial_1_18874" cx="0" cy="0" r="1" gradientUnits="userSpaceOnUse" gradientTransform="translate(270.668 136.287) rotate(90) scale(59.6063 270.667)">
<stop stop-opacity="0"/>
<stop offset="1"/>
</radialGradient>
<radialGradient id="paint2_radial_1_18874" cx="0" cy="0" r="1" gradientUnits="userSpaceOnUse" gradientTransform="translate(261.587 135.674) rotate(90) scale(51.2292 100.084)">
<stop stop-opacity="0"/>
<stop offset="1"/>
</radialGradient>
<radialGradient id="paint3_radial_1_18874" cx="0" cy="0" r="1" gradientUnits="userSpaceOnUse" gradientTransform="translate(279.842 121.818) rotate(90) scale(34.7972 67.9814)">
<stop stop-opacity="0"/>
<stop offset="1"/>
</radialGradient>
</defs>
</svg>
