<svg width="720" height="5040" viewBox="0 0 720 5040" fill="none" xmlns="http://www.w3.org/2000/svg">
<ellipse cx="38.284" cy="28.4392" rx="38.284" ry="28.4392" transform="matrix(0.977216 0.179305 -0.113217 1.00075 31.7363 277.504)" fill="#FFDDDD"/>
<path d="M66.649 304.69C82.0509 307.672 95.2223 314.767 102.956 323.268C99.3482 336.837 82.2431 344.595 62.9008 340.817C43.5015 337.029 28.7194 322.978 28.2205 308.546C37.4487 303.473 51.4321 301.744 66.649 304.69Z" fill="#FF94C8"/>
<ellipse cx="29.7062" cy="57.3445" rx="29.7062" ry="57.3445" transform="matrix(0.781583 0.620799 -0.531169 0.849971 113.83 504.77)" fill="#FFDDDD"/>
<path d="M111.557 568.757C119.416 575.005 124.778 583.904 127.507 594.005C110.87 618.512 88.4151 630.415 76.1633 620.681C64.5245 611.433 66.0917 585.836 79.0219 561.081C90.3907 558.801 101.991 561.153 111.557 568.757Z" fill="#FF94C8"/>
<ellipse cx="29.7062" cy="57.3445" rx="29.7062" ry="57.3445" transform="matrix(0.781583 0.620799 -0.531169 0.849971 113.83 4824.77)" fill="#FFDDDD"/>
<path d="M111.557 4888.76C119.416 4895 124.778 4903.9 127.507 4914C110.87 4938.51 88.4146 4950.42 76.1628 4940.68C64.5239 4931.43 66.0916 4905.84 79.0219 4881.08C90.3906 4878.8 101.991 4881.15 111.557 4888.76Z" fill="#FF94C8"/>
<ellipse cx="28.4089" cy="37.7439" rx="28.4089" ry="37.7439" transform="matrix(0.731921 0.718315 -0.597421 0.773481 203.86 779.602)" fill="#FFDDDD"/>
<path d="M182.158 807.343C188.788 808.755 195.312 812.212 200.91 817.731C212.033 828.698 216.475 844.822 213.511 858.92C202.097 866.75 188.559 866.923 179.672 858.142C168.124 846.732 168.805 824.525 181.194 808.542C181.51 808.134 181.832 807.735 182.158 807.343Z" fill="#FF94C8"/>
<ellipse cx="27.3749" cy="27.4789" rx="27.3749" ry="27.4789" transform="matrix(0.803461 0.596278 -0.501498 0.865581 291.713 1098.87)" fill="#FFDDDD"/>
<path d="M285.024 1114.63C290.715 1116.61 296.372 1120.39 301.224 1125.85C311.977 1137.95 315.346 1154.44 310.258 1165.92C302.692 1169.18 293.697 1168.31 286.175 1162.72C274.012 1153.69 270.307 1135.73 277.902 1122.62C279.809 1119.32 282.248 1116.65 285.024 1114.63Z" fill="#FF94C8"/>
<ellipse cx="27.3749" cy="27.4789" rx="27.3749" ry="27.4789" transform="matrix(0.803461 0.596278 -0.501498 0.865581 291.713 3978.87)" fill="#FFDDDD"/>
<path d="M285.024 3994.63C290.715 3996.61 296.372 4000.39 301.224 4005.85C311.977 4017.95 315.346 4034.44 310.258 4045.92C302.692 4049.18 293.697 4048.31 286.175 4042.72C274.012 4033.69 270.307 4015.73 277.902 4002.62C279.809 3999.32 282.248 3996.65 285.024 3994.63Z" fill="#FF94C8"/>
<g clip-path="url(#clip0_674_1800)">
<ellipse cx="24.0361" cy="27.468" rx="24.0361" ry="27.468" transform="matrix(-0.57121 0.846791 -0.747141 -0.632641 433.212 1520.09)" fill="#FF94C8"/>
<ellipse cx="24.0361" cy="27.468" rx="24.0361" ry="27.468" transform="matrix(-0.57121 0.846791 -0.747141 -0.632641 433.212 1520.09)" fill="#FF94C8"/>
<path d="M385.51 1514.82C392.708 1503.96 405.495 1500.44 416.127 1505.57C424.567 1515.22 426.216 1529.75 419.442 1539.98C411.839 1551.47 396.504 1553.21 385.19 1543.86C383.928 1542.82 382.769 1541.68 381.717 1540.47C379.299 1532.05 380.428 1522.48 385.51 1514.82Z" fill="#FFDDDD"/>
</g>
<g clip-path="url(#clip1_674_1800)">
<ellipse cx="24.0361" cy="27.468" rx="24.0361" ry="27.468" transform="matrix(-0.57121 0.846791 -0.747141 -0.632641 433.213 3680.09)" fill="#FF94C8"/>
<ellipse cx="24.0361" cy="27.468" rx="24.0361" ry="27.468" transform="matrix(-0.57121 0.846791 -0.747141 -0.632641 433.213 3680.09)" fill="#FF94C8"/>
<path d="M385.511 3674.82C392.709 3663.96 405.496 3660.44 416.128 3665.57C424.568 3675.22 426.217 3689.75 419.443 3699.98C411.84 3711.47 396.505 3713.21 385.191 3703.86C383.929 3702.82 382.77 3701.68 381.718 3700.47C379.3 3692.05 380.429 3682.48 385.511 3674.82Z" fill="#FFDDDD"/>
</g>
<g clip-path="url(#clip2_674_1800)">
<ellipse cx="27.0927" cy="39.208" rx="27.0927" ry="39.208" transform="matrix(-0.773382 0.665706 -0.590913 -0.77964 526.691 1947.62)" fill="#FF94C8"/>
<path d="M470.458 1919.6C479.916 1910.63 493.49 1910.75 504.899 1918.56C516.409 1935.05 516.856 1955.68 505.622 1965.42C493.987 1975.51 474.234 1970.11 461.5 1953.36C461.399 1953.22 461.299 1953.09 461.199 1952.96C459.128 1940.14 462.242 1927.39 470.458 1919.6Z" fill="#FFDDDD"/>
</g>
<g clip-path="url(#clip3_674_1800)">
<ellipse cx="27.0927" cy="39.208" rx="27.0927" ry="39.208" transform="matrix(-0.773382 0.665706 -0.590913 -0.77964 526.691 3387.62)" fill="#FF94C8"/>
<path d="M470.458 3359.59C479.915 3350.63 493.489 3350.75 504.899 3358.56C516.409 3375.05 516.857 3395.68 505.622 3405.42C493.987 3415.51 474.234 3410.11 461.5 3393.35C461.399 3393.22 461.299 3393.09 461.199 3392.95C459.128 3380.13 462.242 3367.38 470.458 3359.59Z" fill="#FFDDDD"/>
</g>
<ellipse cx="28.4089" cy="37.7439" rx="28.4089" ry="37.7439" transform="matrix(0.731921 0.718315 -0.597421 0.773481 203.86 4379.6)" fill="#FFDDDD"/>
<path d="M182.158 4407.34C188.788 4408.76 195.312 4412.21 200.91 4417.73C212.033 4428.7 216.475 4444.82 213.511 4458.92C202.097 4466.75 188.559 4466.92 179.672 4458.14C168.124 4446.73 168.805 4424.53 181.194 4408.54C181.51 4408.13 181.832 4407.73 182.158 4407.34Z" fill="#FF94C8"/>
<g clip-path="url(#clip4_674_1800)">
<ellipse cx="25.9905" cy="46.7143" rx="25.9905" ry="46.7143" transform="matrix(0.737157 -0.685486 0.57063 0.817298 535.346 2365.8)" fill="#FF94C8"/>
<path d="M564.767 2368.29C573.594 2360.6 585.968 2359.84 597.789 2364.94C598.645 2366.04 599.487 2367.18 600.31 2368.36C615.035 2389.45 618.396 2414.52 607.817 2424.36C597.239 2434.19 576.726 2425.07 562.001 2403.98C558.962 2399.63 556.409 2395.1 554.36 2390.58C555.106 2381.64 558.562 2373.69 564.767 2368.29Z" fill="#FFDDDD"/>
</g>
<g clip-path="url(#clip5_674_1800)">
<ellipse cx="25.9905" cy="46.7143" rx="25.9905" ry="46.7143" transform="matrix(0.737157 -0.685486 0.57063 0.817298 535.345 3085.8)" fill="#FF94C8"/>
<path d="M564.767 3088.28C573.594 3080.6 585.967 3079.83 597.787 3084.94C598.643 3086.04 599.486 3087.18 600.309 3088.36C615.034 3109.45 618.395 3134.52 607.816 3144.35C597.238 3154.19 576.726 3145.06 562.001 3123.97C558.962 3119.62 556.408 3115.1 554.359 3110.58C555.105 3101.64 558.561 3093.68 564.767 3088.28Z" fill="#FFDDDD"/>
</g>
<g clip-path="url(#clip6_674_1800)">
<ellipse cx="23.0846" cy="41.0877" rx="23.0846" ry="41.0877" transform="matrix(-0.136633 -0.989088 0.992264 -0.13399 609.783 2863.66)" fill="#FF94C8"/>
<path d="M606.697 2841.28C606.546 2840.24 606.531 2839.19 606.639 2838.14C614.685 2832.05 627.592 2827.21 642.633 2825.36C661.688 2823.02 679.019 2826.12 688.148 2832.59C686.915 2843.86 671.144 2854.7 650.62 2857.7C628.142 2860.99 608.477 2853.64 606.697 2841.28Z" fill="#FFDDDD"/>
</g>
<defs>
<clipPath id="clip0_674_1800">
<rect width="360" height="720" fill="white" transform="translate(0 1800) rotate(-90)"/>
</clipPath>
<clipPath id="clip1_674_1800">
<rect width="360" height="720" fill="white" transform="translate(0 3960) rotate(-90)"/>
</clipPath>
<clipPath id="clip2_674_1800">
<rect width="360" height="720" fill="white" transform="translate(0 2160) rotate(-90)"/>
</clipPath>
<clipPath id="clip3_674_1800">
<rect width="360" height="720" fill="white" transform="translate(0 3600) rotate(-90)"/>
</clipPath>
<clipPath id="clip4_674_1800">
<rect width="360" height="720" fill="white" transform="translate(0 2520) rotate(-90)"/>
</clipPath>
<clipPath id="clip5_674_1800">
<rect width="360" height="720" fill="white" transform="translate(0 3240) rotate(-90)"/>
</clipPath>
<clipPath id="clip6_674_1800">
<rect width="360" height="720" fill="white" transform="translate(0 2880) rotate(-90)"/>
</clipPath>
</defs>
</svg>
