<svg width="1054" height="844" viewBox="0 0 1054 844" fill="none" xmlns="http://www.w3.org/2000/svg">
<path d="M1008.18 -199.076L929.547 139.469L1156.71 175.144L909.944 421.922L945.095 709.787L716.008 678.969L532.677 1002.25L493.779 717.047L230.017 832.313L410.598 507.483L265.024 327.932L529.104 208.083L611.337 -131.08L760.058 44.3016L1008.18 -199.076Z" fill="#FF94C8"/>
<path d="M992.564 -172.29L917.294 151.094L1134.02 185L898.383 420.865L931.713 695.764L713.15 666.498L537.988 975.385L501.08 703.026L249.326 813.303L421.866 502.943L283.095 331.569L535.157 216.916L613.867 -107.061L755.643 60.3281L992.564 -172.29Z" fill="black"/>
<path d="M970.044 -132.179L900.242 167.57L1101.07 198.964L882.677 417.617L913.522 672.409L710.986 645.317L548.618 931.643L514.457 679.206L281.142 781.458L441.08 493.766L312.509 334.945L546.109 228.637L619.099 -71.6613L750.456 83.466L970.044 -132.179Z" fill="#FF0000"/>
<path d="M951.874 -98.796L886.524 181.86L1074.57 211.259L870.082 415.98L898.97 654.545L709.327 629.173L557.302 897.26L525.311 660.9L306.851 756.633L456.601 487.269L336.211 338.56L554.937 239.029L623.273 -42.1415L746.271 103.109L951.874 -98.796Z" fill="#FFDDDD"/>
<path d="M931.366 -63.2962L870.558 196.613L1044.24 223.537L855.007 413.369L881.324 634.168L706.166 610.975L565.306 859.383L536.117 640.629L334.149 729.59L472.909 480.003L361.92 342.526L564.14 250.049L627.707 -10.3412L741.111 123.929L931.366 -63.2962Z" fill="#FF94C8"/>
<path d="M908.844 -23.1819L853.686 213.762L1012.47 238.598L839.822 411.422L864.232 612.837L704.103 591.401L575.759 817.727L548.728 618.173L364.275 698.98L490.698 471.576L389.033 346.016L573.71 262.002L631.388 24.6237L735.255 147.264L908.844 -23.1819Z" fill="#FF0000"/>
<path d="M890.727 9.07825L839.884 227.42L986.175 250.29L827.09 409.559L849.56 595.155L702.027 575.419L583.756 783.984L558.871 600.104L388.918 674.584L505.42 465.025L411.764 349.336L581.924 271.901L635.09 53.158L730.775 166.157L890.727 9.07825Z" fill="black"/>
<path d="M873.592 39.5937L826.79 240.317L961.176 261.276L814.958 407.746L835.522 578.338L699.994 560.259L591.25 752.024L568.467 583.011L412.302 651.546L519.42 458.868L433.43 352.566L589.787 281.314L638.723 80.2213L726.579 184.05L873.592 39.5937Z" fill="#FF94C8"/>
<path d="M859.882 64.0127L816.27 250.618L941.038 269.996L805.156 406.249L824.12 564.795L698.289 548.095L597.168 726.421L576.143 569.343L431.084 633.165L530.696 453.992L450.93 355.252L596.17 288.905L641.764 101.955L723.263 198.395L859.882 64.0127Z" fill="#FFDDDD"/>
<path d="M845.687 89.2938L805.296 261.229L919.918 278.866L794.821 404.583L811.98 550.571L696.378 535.402L603.154 699.809L584.097 555.177L450.689 614.201L542.528 449.016L469.395 358.211L602.973 296.862L645.185 124.606L719.916 213.288L845.687 89.2938Z" fill="#FF0000"/>
<path d="M830.508 116.325L793.823 272.726L898.182 288.83L784.359 403.141L800.054 535.965L694.803 522.107L610.016 671.632L592.594 540.041L471.171 593.672L554.697 443.438L488.071 360.789L609.648 305.042L647.991 148.35L716.069 229.068L830.508 116.325Z" fill="black"/>
<path d="M814.354 145.103L781.437 284.869L874.477 299.119L772.827 401.384L786.65 520.02L692.812 507.777L617.009 641.463L601.645 523.931L493.297 571.999L567.976 437.682L508.671 363.936L617.159 313.978L651.555 173.95L712.158 245.969L814.354 145.103Z" fill="#FF94C8"/>
<path d="M800.644 169.515L770.917 295.162L854.339 307.831L763.025 399.879L775.248 506.469L691.107 495.605L622.927 615.852L609.32 510.255L512.078 553.611L579.251 432.798L526.172 366.615L623.542 321.561L654.596 195.676L708.842 260.307L800.644 169.515Z" fill="#FFDDDD"/>
<path d="M785.953 195.676L759.902 306.34L833.59 317.636L753.099 398.598L764.062 492.537L689.743 482.83L629.727 588.675L617.543 495.609L531.74 533.657L590.867 427.312L543.889 368.911L629.802 329.367L657.025 218.496L705.03 275.53L785.953 195.676Z" fill="#FF0000"/>
<path d="M770.288 223.579L747.762 318.04L810.189 327.378L741.627 396.73L750.548 476.783L687.58 468.802L636.277 559.288L626.318 479.985L553.424 512.767L603.974 421.858L564.379 372.25L637.372 338.191L660.892 243.549L701.364 291.988L770.288 223.579Z" fill="black"/>
<path d="M756.579 247.988L737.455 328.449L790.733 336.47L732.302 395.489L739.997 463.707L686.257 456.842L642.574 533.887L633.994 466.307L571.828 494.163L614.868 416.757L581.03 374.448L643.28 345.504L663.252 264.89L697.837 306.204L756.579 247.988Z" fill="#FF94C8"/>
<path d="M745.81 267.178L729.268 336.588L775.158 343.461L724.773 394.412L731.344 453.24L685.057 447.364L647.363 513.849L640.028 455.572L586.452 479.648L623.594 412.853L594.48 376.392L648.129 351.377L665.401 281.833L695.159 317.436L745.81 267.178Z" fill="#FF0000"/>
<path d="M732.59 290.717L719.42 346.678L756.689 352.394L715.984 393.332L721.534 440.838L683.946 435.925L653.597 489.448L647.43 442.384L604.036 461.62L633.935 407.845L610.172 378.309L653.622 358.316L667.384 302.25L691.666 331.095L732.59 290.717Z" fill="#FFDDDD"/>
<path d="M722.799 308.154L711.938 354.048L742.404 358.672L709.052 392.296L713.512 431.228L682.784 427.263L657.88 471.185L652.914 432.616L617.399 448.455L641.935 404.326L622.552 380.155L658.114 363.695L669.46 317.715L689.268 341.319L722.799 308.154Z" fill="black"/>
<path d="M711.047 329.084L702.83 362.825L724.851 365.981L700.446 390.897L703.374 419.414L681.159 416.743L662.79 449.147L659.493 420.9L633.659 432.79L651.763 400.238L637.918 382.66L663.79 370.315L672.358 336.507L686.517 353.665L711.047 329.084Z" fill="#FF94C8"/>
<path d="M700.768 347.396L695.102 370.637L710.261 372.806L693.454 389.973L695.463 409.613L680.169 407.779L667.516 430.102L665.252 410.647L647.464 418.843L659.936 396.418L650.408 384.315L668.223 375.806L674.13 352.518L683.874 364.332L700.768 347.396Z" fill="#FF0000"/>
<path d="M690.976 364.833L687.62 378.007L695.976 379.084L686.521 388.937L687.441 400.003L679.007 399.116L671.798 411.839L670.736 400.88L660.827 405.678L667.936 392.9L662.788 386.161L672.716 381.185L676.206 367.983L681.476 374.557L690.976 364.833Z" fill="#FFDDDD"/>
</svg>
