<svg width="800" height="807" viewBox="0 0 800 807" fill="none" xmlns="http://www.w3.org/2000/svg">
<path d="M399.896 0L497.061 199.915L712.548 151.92L618.224 353.215L789.767 493.282L574.981 544.378L573.405 767.032L399.896 629.453L226.388 767.032L224.812 544.378L10.0262 493.282L181.569 353.215L87.2448 151.92L302.732 199.915L399.896 0Z" fill="#FF94C8"/>
<path d="M399.896 18.3984L492.591 209.397L698.165 163.543L608.18 355.861L771.832 489.681L566.927 538.498L565.423 751.222L399.896 619.779L234.369 751.222L232.865 538.498L27.9596 489.681L191.611 355.861L101.626 163.543L307.201 209.397L399.896 18.3984Z" fill="black"/>
<path d="M399.896 46.3906L485.789 223.322L676.28 180.845L592.897 358.999L744.541 482.963L554.671 528.184L553.277 725.242L399.896 603.479L246.514 725.242L245.12 528.184L55.2499 482.963L206.894 358.999L123.511 180.845L314.002 223.322L399.896 46.3906Z" fill="#FF0000"/>
<path d="M399.896 68.7812L480.349 234.618L658.772 194.804L580.671 361.786L722.709 477.976L544.867 520.362L543.561 705.062L399.896 590.935L256.231 705.062L254.925 520.362L77.083 477.976L219.121 361.786L141.02 194.804L319.443 234.618L399.896 68.7812Z" fill="#FFDDDD"/>
<path d="M399.495 93.5781L473.827 247.13L638.674 210.266L566.516 364.879L697.747 472.462L533.436 511.708L532.23 682.727L399.495 577.054L266.761 682.727L265.555 511.708L101.244 472.462L232.475 364.879L160.317 210.266L325.164 247.13L399.495 93.5781Z" fill="#FF94C8"/>
<path d="M399.497 120.773L467.415 260.853L618.041 227.223L552.108 368.27L672.016 466.413L521.881 502.216L520.779 658.229L399.497 561.828L278.214 658.229L277.112 502.216L126.977 466.413L246.886 368.27L180.953 227.223L331.578 260.853L399.497 120.773Z" fill="#FF0000"/>
<path d="M399.497 143.164L461.974 272.148L600.532 241.182L539.882 371.056L650.184 461.427L512.077 494.393L511.063 638.049L399.497 549.283L287.931 638.049L286.917 494.393L148.81 461.427L259.112 371.056L198.462 241.182L337.02 272.148L399.497 143.164Z" fill="black"/>
<path d="M399.495 163.961L456.92 282.642L584.273 254.15L528.527 373.65L629.909 456.802L502.971 487.135L502.039 619.316L399.495 537.641L296.952 619.316L296.02 487.135L169.082 456.802L270.464 373.65L214.718 254.15L342.071 282.642L399.495 163.961Z" fill="#FF94C8"/>
<path d="M399.497 180.758L452.84 291.117L571.143 264.623L519.358 375.744L613.536 453.065L495.618 481.272L494.753 604.185L399.497 528.236L304.24 604.185L303.375 481.272L185.458 453.065L279.635 375.744L227.851 264.623L346.153 291.117L399.497 180.758Z" fill="#FFDDDD"/>
<path d="M399.499 198.352L448.567 299.993L557.388 275.592L509.754 377.935L596.384 449.148L487.917 475.127L487.121 588.33L399.499 518.381L311.877 588.33L311.081 475.127L202.614 449.148L289.243 377.935L241.609 275.592L350.43 299.993L399.499 198.352Z" fill="#FF0000"/>
<path d="M399.498 216.742L444.097 309.27L543.005 287.056L499.71 380.223L578.449 445.05L479.862 468.699L479.139 571.752L399.498 508.075L319.857 571.752L319.134 468.699L220.547 445.05L299.286 380.223L255.991 287.056L354.899 309.27L399.498 216.742Z" fill="black"/>
<path d="M399.495 236.742L439.236 319.363L527.37 299.528L488.791 382.719L558.953 440.606L471.105 461.723L470.46 553.742L399.495 496.883L328.53 553.742L327.886 461.723L240.038 440.606L310.199 382.719L271.621 299.528L359.755 319.363L399.495 236.742Z" fill="#FF94C8"/>
<path d="M399.497 253.539L435.156 327.839L514.24 310.001L479.623 384.813L542.579 436.87L463.753 455.86L463.174 538.611L399.497 487.479L335.819 538.611L335.24 455.86L256.414 436.87L319.37 384.813L284.753 310.001L363.837 327.839L399.497 253.539Z" fill="#FFDDDD"/>
<path d="M399.495 271.133L430.879 336.714L500.481 320.97L470.015 387.004L525.423 432.953L456.047 449.715L455.538 522.756L399.495 477.624L343.452 522.756L342.942 449.715L273.567 432.953L328.975 387.004L298.508 320.97L368.111 336.714L399.495 271.133Z" fill="#FF0000"/>
<path d="M399.495 290.328L426.215 346.399L485.474 332.938L459.535 389.397L506.71 428.682L447.644 443.013L447.21 505.462L399.495 466.875L351.78 505.462L351.347 443.013L292.281 428.682L339.455 389.397L313.516 332.938L372.775 346.399L399.495 290.328Z" fill="black"/>
<path d="M399.495 307.125L422.329 354.875L472.969 343.411L450.802 391.491L491.115 424.946L440.64 437.15L440.27 490.331L399.495 457.47L358.721 490.331L358.35 437.15L307.876 424.946L348.188 391.491L326.022 343.411L376.662 354.875L399.495 307.125Z" fill="#FF94C8"/>
<path d="M399.496 320.719L419.027 361.732L462.34 351.886L443.38 393.182L477.861 421.917L434.689 432.4L434.372 478.078L399.496 449.854L364.621 478.078L364.304 432.4L321.132 421.917L355.613 393.182L336.653 351.886L379.966 361.732L399.496 320.719Z" fill="#FF0000"/>
<path d="M399.496 336.711L415.334 369.799L450.458 361.855L435.083 395.172L463.045 418.354L428.035 426.811L427.778 463.663L399.496 440.892L371.214 463.663L370.957 426.811L335.947 418.354L363.908 395.172L348.533 361.855L383.658 369.799L399.496 336.711Z" fill="#FFDDDD"/>
<path d="M399.495 348.711L412.418 375.855L441.078 369.338L428.532 396.67L451.348 415.688L422.781 422.626L422.572 452.857L399.495 434.177L376.418 452.857L376.209 422.626L347.642 415.688L370.457 396.67L357.912 369.338L386.572 375.855L399.495 348.711Z" fill="black"/>
<path d="M399.497 363.109L408.922 383.121L429.824 378.316L420.675 398.466L437.315 412.487L416.48 417.601L416.327 439.889L399.497 426.117L382.667 439.889L382.514 417.601L361.68 412.487L378.319 398.466L369.17 378.316L390.072 383.121L399.497 363.109Z" fill="#FF94C8"/>
<path d="M399.496 375.906L406.006 389.577L420.444 386.295L414.124 400.061L425.618 409.639L411.227 413.133L411.121 428.359L399.496 418.951L387.871 428.359L387.766 413.133L373.375 409.639L384.868 400.061L378.549 386.295L392.986 389.577L399.496 375.906Z" fill="#FF0000"/>
<path d="M399.495 387.898L403.091 395.626L411.064 393.77L407.574 401.551L413.921 406.965L405.974 408.94L405.915 417.546L399.495 412.228L393.076 417.546L393.017 408.94L385.07 406.965L391.417 401.551L387.927 393.77L395.9 395.626L399.495 387.898Z" fill="#FFDDDD"/>
</svg>
