<svg width="800" height="1138" viewBox="0 0 800 1138" fill="none" xmlns="http://www.w3.org/2000/svg">
<path d="M399.896 0L497.086 296.531L712.629 225.341L618.28 523.92L789.868 731.679L575.027 807.469L573.45 1137.73L399.896 933.66L226.343 1137.73L224.766 807.469L9.92532 731.679L181.513 523.92L87.1639 225.341L302.707 296.531L399.896 0Z" fill="#FF94C8"/>
<path d="M399.396 27L492.091 310.402L697.665 242.364L607.68 527.722L771.331 726.282L566.427 798.716L564.923 1114.35L399.396 919.32L233.87 1114.35L232.366 798.716L27.4615 726.282L191.113 527.722L101.128 242.364L306.702 310.402L399.396 27Z" fill="black"/>
<path d="M399.396 69L485.288 331.345L675.774 268.362L592.393 532.518L744.034 716.325L554.168 783.377L552.774 1075.56L399.396 895.02L246.019 1075.56L244.625 783.377L54.7595 716.325L206.4 532.518L123.019 268.362L313.505 331.345L399.396 69Z" fill="#FF0000"/>
<path d="M399.896 102L480.321 347.995L658.683 288.937L580.609 536.63L722.598 708.982L544.817 771.855L543.512 1045.83L399.896 876.54L256.281 1045.83L254.976 771.855L77.1953 708.982L219.184 536.63L141.11 288.937L319.472 347.995L399.896 102Z" fill="#FFDDDD"/>
<path d="M398.896 139L473.247 366.663L638.137 312.006L565.96 541.241L697.224 700.748L532.871 758.936L531.665 1012.5L398.896 855.82L266.128 1012.5L264.922 758.936L100.569 700.748L231.833 541.241L159.656 312.006L324.546 366.663L398.896 139Z" fill="#FF94C8"/>
<path d="M399.396 179L467.308 386.844L617.918 336.946L551.992 546.225L671.889 691.848L521.769 744.97L520.667 976.456L399.396 833.42L278.126 976.456L277.024 744.97L126.904 691.848L246.801 546.225L180.875 336.946L331.485 386.844L399.396 179Z" fill="#FF0000"/>
<path d="M399.396 212L461.963 403.494L600.718 357.521L539.981 550.338L650.44 684.504L512.137 733.448L511.122 946.724L399.396 814.94L287.671 946.724L286.656 733.448L148.353 684.504L258.812 550.338L198.075 357.521L336.83 403.494L399.396 212Z" fill="black"/>
<path d="M399.396 243L456.86 419.135L584.3 376.849L528.516 554.201L629.967 677.606L502.942 722.624L502.01 918.794L399.396 797.58L296.783 918.794L295.851 722.624L168.826 677.606L270.277 554.201L214.493 376.849L341.933 419.135L399.396 243Z" fill="#FF94C8"/>
<path d="M399.396 268L452.729 431.749L571.008 392.437L519.235 557.316L613.393 672.043L495.499 713.896L494.634 896.27L399.396 783.58L304.159 896.27L303.294 713.896L185.4 672.043L279.558 557.316L227.784 392.437L346.063 431.749L399.396 268Z" fill="#FFDDDD"/>
<path d="M398.896 294L447.977 444.867L556.826 408.647L509.18 560.556L595.832 666.258L487.337 704.817L486.541 872.845L398.896 769.02L311.252 872.845L310.456 704.817L201.961 666.258L288.613 560.556L240.967 408.647L349.816 444.867L398.896 294Z" fill="#FF0000"/>
<path d="M399.396 321L443.982 458.489L542.863 425.482L499.58 563.92L578.296 660.25L479.737 695.39L479.014 848.519L399.396 753.9L319.779 848.519L319.055 695.39L220.497 660.25L299.213 563.92L255.93 425.482L354.811 458.489L399.396 321Z" fill="black"/>
<path d="M399.396 351L439.123 473.626L527.226 444.186L488.661 567.659L558.797 653.574L470.981 684.916L470.336 821.49L399.396 737.1L328.456 821.49L327.812 684.916L239.996 653.574L310.132 567.659L271.567 444.186L359.67 473.626L399.396 351Z" fill="#FF94C8"/>
<path d="M399.396 376L434.992 486.239L513.935 459.774L479.38 570.774L542.223 648.011L463.538 676.187L462.96 798.966L399.396 723.1L335.833 798.966L335.255 676.187L256.57 648.011L319.413 570.774L284.858 459.774L363.801 486.239L399.396 376Z" fill="#FFDDDD"/>
<path d="M399.396 402L430.862 499.357L500.644 475.984L470.098 574.014L525.65 642.225L456.095 667.109L455.584 775.54L399.396 708.54L343.209 775.54L342.698 667.109L273.143 642.225L328.695 574.014L298.149 475.984L367.931 499.357L399.396 402Z" fill="#FF0000"/>
<path d="M398.896 431L425.624 513.989L484.898 494.065L458.952 577.628L506.139 635.772L447.057 656.983L446.624 749.412L398.896 692.3L351.169 749.412L350.736 656.983L291.654 635.772L338.841 577.628L312.895 494.065L372.169 513.989L398.896 431Z" fill="black"/>
<path d="M398.896 456L421.736 526.603L472.389 509.653L450.217 580.743L490.54 630.209L440.052 648.254L439.682 726.888L398.896 678.3L358.111 726.888L357.741 648.254L307.253 630.209L347.576 580.743L325.404 509.653L376.057 526.603L398.896 456Z" fill="#FF94C8"/>
<path d="M399.396 476L418.956 536.694L462.334 522.122L443.346 583.235L477.878 625.759L434.641 641.271L434.324 708.869L399.396 667.1L364.469 708.869L364.152 641.271L320.915 625.759L355.447 583.235L336.459 522.122L379.837 536.694L399.396 476Z" fill="#FF0000"/>
<path d="M399.396 499L415.311 548.298L450.606 536.463L435.157 586.101L463.254 620.641L428.074 633.241L427.816 688.146L399.396 654.22L370.977 688.146L370.719 633.241L335.539 620.641L363.636 586.101L348.187 536.463L383.482 548.298L399.396 499Z" fill="#FFDDDD"/>
<path d="M399.396 517L412.396 557.38L441.224 547.686L428.605 588.344L451.555 616.635L422.82 626.956L422.609 671.929L399.396 644.14L376.184 671.929L375.973 626.956L347.238 616.635L370.188 588.344L357.569 547.686L386.397 557.38L399.396 517Z" fill="black"/>
<path d="M399.396 539L408.751 568.48L429.497 561.402L420.416 591.086L436.931 611.74L416.253 619.275L416.101 652.108L399.396 631.82L382.692 652.108L382.54 619.275L361.862 611.74L378.377 591.086L369.296 561.402L390.042 568.48L399.396 539Z" fill="#FF94C8"/>
<path d="M399.396 558L405.835 578.066L420.115 573.249L413.864 593.453L425.232 607.512L410.999 612.641L410.894 634.989L399.396 621.18L387.899 634.989L387.794 612.641L373.561 607.512L384.929 593.453L378.678 573.249L392.958 578.066L399.396 558Z" fill="#FF0000"/>
<path d="M399.396 575L402.92 586.643L410.733 583.848L407.313 595.572L413.533 603.729L405.745 606.705L405.688 619.673L399.396 611.66L393.105 619.673L393.048 606.705L385.26 603.729L391.48 595.572L388.06 583.848L395.873 586.643L399.396 575Z" fill="#FFDDDD"/>
</svg>
